<?xml version="1.0" encoding="utf-8"?>
<!-- Generator: Adobe Illustrator 21.1.0, SVG Export Plug-In . SVG Version: 6.00 Build 0)  -->
<svg version="1.1" id="Слой_1" xmlns="http://www.w3.org/2000/svg" xmlns:xlink="http://www.w3.org/1999/xlink" x="0px" y="0px"
	 viewBox="0 0 89.1 228.5" style="enable-background:new 0 0 89.1 228.5;" xml:space="preserve">
<style type="text/css">
	.st0{
		clip-path:url(#SVGID_2_);
		fill: #f2f2f2;
	}
	
</style>
<g>
	<defs>
		<rect id="SVGID_1_" width="89.1" height="228.5"/>
	</defs>
	<clipPath id="SVGID_2_">
		<use xlink:href="#SVGID_1_"  style="overflow:visible;"/>
	</clipPath>
	<path class="st0" d="M27.5,41.8c-1.4,7.6,1,21.2-1,25.7S16.4,93.6,13.9,97.2c-2.5,3.5-15.1,26.2-9.6,44.3
		C9.9,159.6,25,171.2,25,176.7c0,5.5-6.5,8.6-14.6,17.6c-8.1,9.1-14.6,21.7-7.1,28.2c7.6,6.5,21.7,7,28.2,4.5
		c6.5-2.5,10.1-7.6,7.6-9.6c-2.5-2-5.5,2-11.1,3.5s-15.6,0-15.6-5.5s13.6-13.1,21.1-18.1c7.6-5,20.6-16.6,21.7-19.1
		c1-2.5,10.6,0,14.6-4c4-4,8.1-21.1,11.6-24.2c3.5-3,10.6-17.1,6.5-32.7c-4-15.6-13.6-33.7-12.1-43.8c1.5-10.1,5-18.6,4-26.7
		c-1-8.1-6.4-10.7-6-15.2c0.4-2.3,2.3-4,2.9-8.6c0.6-4.6,0.1-9.3,0.1-9.3s5.6-8.7,5-11.5c-0.3-1.1-3.7,0.4-5.7,1.4
		C70.9,6.3,63,0.9,55.4,0.5c-7.6-0.4-13.1,4.1-18.7,2.4c-3.2-1-7.3-3.8-8.4-2.6c-1.1,1.2,1.1,7.7,6.5,11.9c0,2.5-1.4,6.7-1,10.5
		c0.4,3.8,0.9,6.4-0.4,8.9C32,34,28.9,34.2,27.5,41.8"/>
</g>
</svg>
