<?xml version="1.0" encoding="iso-8859-1"?>
<!-- Generator: Adobe Illustrator 19.0.0, SVG Export Plug-In . SVG Version: 6.00 Build 0)  -->
<svg version="1.1" id="Layer_1" xmlns="http://www.w3.org/2000/svg" xmlns:xlink="http://www.w3.org/1999/xlink" x="0px" y="0px"
	 viewBox="0 0 512 512" style="enable-background:new 0 0 512 512;" xml:space="preserve">
<g>
	<g>
		<path d="M174.545,186.182c-19.782,0-34.909,15.127-34.909,34.909c0,19.782,15.127,34.909,34.909,34.909
			s34.909-15.127,34.909-34.909C209.455,201.309,194.327,186.182,174.545,186.182z M174.545,232.727
			c-6.982,0-11.636-4.655-11.636-11.636c0-6.982,4.655-11.636,11.636-11.636s11.636,4.655,11.636,11.636
			C186.182,228.073,181.527,232.727,174.545,232.727z"/>
	</g>
</g>
<g>
	<g>
		<path d="M209.455,314.182c-19.782,0-34.909,15.127-34.909,34.909c0,19.782,15.127,34.909,34.909,34.909
			c19.782,0,34.909-15.127,34.909-34.909C244.364,329.309,229.236,314.182,209.455,314.182z M209.455,360.727
			c-6.982,0-11.636-4.655-11.636-11.636c0-6.982,4.655-11.636,11.636-11.636c6.982,0,11.636,4.655,11.636,11.636
			C221.091,356.073,216.436,360.727,209.455,360.727z"/>
	</g>
</g>
<g>
	<g>
		<path d="M252.509,224.582c-4.655-4.655-11.636-4.655-16.291,0L131.491,329.309c-4.655,4.655-4.655,11.636,0,16.291
			c2.327,2.327,5.818,3.491,8.145,3.491s5.818-1.164,8.146-3.491l104.727-104.727C257.164,236.218,257.164,229.236,252.509,224.582z
			"/>
	</g>
</g>
<g>
	<g>
		<path d="M500.364,46.545c-6.982,0-11.636,4.655-11.636,11.636c0,32.582-25.6,58.182-58.182,58.182h-69.818
			c-6.982,0-11.636,4.655-11.636,11.636s4.655,11.636,11.636,11.636h8.145c-3.491,6.982-11.636,11.636-19.782,11.636
			c-12.8,0-23.273-10.473-23.273-23.273s10.473-23.273,23.273-23.273c6.982,0,11.636-4.655,11.636-11.636
			c0-6.982-4.655-11.636-11.636-11.636c-25.6,0-46.545,20.945-46.545,46.545s20.945,46.545,46.545,46.545
			c22.109,0,39.564-15.127,45.382-34.909h24.436v53.527c0,15.127-5.818,29.091-16.291,39.564l-204.8,216.436L27.927,290.909
			L243.2,75.636C254.836,64,268.8,58.182,285.091,58.182h133.818v23.273c0,6.982,4.655,11.636,11.636,11.636
			s11.636-4.655,11.636-11.636V46.545c0-6.982-4.655-11.636-11.636-11.636H285.091c-22.109,0-41.891,8.145-57.018,24.436
			L3.491,282.764C1.164,285.091,0,287.418,0,290.909s1.164,5.818,3.491,8.145L189.673,473.6c2.327,2.327,4.655,3.491,8.145,3.491
			s5.818-1.164,8.145-3.491l212.945-224.582c13.964-15.127,22.109-34.909,22.109-55.854v-54.691
			C481.745,132.655,512,98.909,512,58.182C512,51.2,507.345,46.545,500.364,46.545z"/>
	</g>
</g>
<g>
</g>
<g>
</g>
<g>
</g>
<g>
</g>
<g>
</g>
<g>
</g>
<g>
</g>
<g>
</g>
<g>
</g>
<g>
</g>
<g>
</g>
<g>
</g>
<g>
</g>
<g>
</g>
<g>
</g>
</svg>
