<?xml version="1.0" encoding="utf-8"?>
<!-- Generator: Adobe Illustrator 20.1.0, SVG Export Plug-In . SVG Version: 6.00 Build 0)  -->
<svg version="1.1" id="Capa_1" xmlns="http://www.w3.org/2000/svg" xmlns:xlink="http://www.w3.org/1999/xlink" x="0px" y="0px"
	 viewBox="0 0 612.3 612.3" style="enable-background:new 0 0 612.3 612.3;" xml:space="preserve">
<style type="text/css">
	.st0{fill:#3F3F3F;}
</style>
<g>
	<g>
		<g>
			<path class="st0" d="M187.6,359.5h360.9l63.9-227.9h-94L484.6,27.3L343.9,72.9l19.2,58.6h-6.6L321.8,27.3L181.1,72.9l19.2,58.6
				h-75.2L109.5,69C101.6,37.8,74.4,15.7,43,15.7H0v26.1h43c19.5,0,36.5,13,41.7,32.6l69.1,270.4c-14.2,10.2-23.6,27-23.6,46.1
				c0,31.2,26.1,57.4,57.4,57.4h351.8v-26.1H187.6c-17,0-31.2-14.4-31.2-31.2C156.3,373.8,170.7,359.5,187.6,359.5L187.6,359.5z
				 M467.7,59.8l23.5,70.4H389.6l-14.4-40.4L467.7,59.8z M304.9,59.8l23.5,70.4H226.8l-14.4-40.4L304.9,59.8z M578.5,156.3
				L529,333.5H177.2l-45.6-177.2L578.5,156.3L578.5,156.3z"/>
			<path class="st0" d="M424.8,487.2c-30,0-54.7,24.7-54.7,54.7c0,30,24.7,54.7,54.7,54.7c31.2,0,54.7-24.7,54.7-54.7
				C479.5,511.9,454.7,487.2,424.8,487.2z M424.8,571.9c-17,0-30-14.4-30-30c0-17,14.4-30,30-30c17,0,30,13,30,30
				C454.7,558.9,440.4,571.9,424.8,571.9z"/>
			<path class="st0" d="M224.1,487.2c-30,0-54.7,24.7-54.7,54.7c0,30,24.7,54.7,54.7,54.7s54.7-24.7,54.7-54.7
				C278.8,511.9,254.1,487.2,224.1,487.2z M224.1,571.9c-17,0-30-14.4-30-30c0-17,14.4-30,30-30s30,13,30,30
				C254.1,558.9,239.7,571.9,224.1,571.9z"/>
		</g>
	</g>
</g>
</svg>
