<?xml version="1.0" encoding="UTF-8" standalone="no"?>
<svg
   xmlns:dc="http://purl.org/dc/elements/1.1/"
   xmlns:cc="http://creativecommons.org/ns#"
   xmlns:rdf="http://www.w3.org/1999/02/22-rdf-syntax-ns#"
   xmlns:svg="http://www.w3.org/2000/svg"
   xmlns="http://www.w3.org/2000/svg"
   id="svg8"
   version="1.1"
   viewBox="0 0 564.60455 492.89737"
   height="492.89737mm"
   width="564.60455mm">
  <defs
     id="defs2" />
  <metadata
     id="metadata5">
    <rdf:RDF>
      <cc:Work
         rdf:about="">
        <dc:format>image/svg+xml</dc:format>
        <dc:type
           rdf:resource="http://purl.org/dc/dcmitype/StillImage" />
        <dc:title></dc:title>
      </cc:Work>
    </rdf:RDF>
  </metadata>
  <g
     transform="translate(321.61845,61.318934)"
     id="layer1">
    <path
       id="path4496"
       d="m -3.5907767,412.52843 v -19.05 h 3.77031003 c 4.41869997,-0.003 10.79316967,-0.35889 16.73488967,-0.93835 43.52444,-4.24476 83.820107,-21.80616 117.475007,-51.19719 4.43023,-3.86898 14.5252,-13.96479 18.3374,-18.33896 29.52266,-33.87471 46.83307,-73.53417 51.23296,-117.37846 1.4469,-14.4182 1.19819,-32.02532 -0.66154,-46.83125 C 193.84228,83.510087 143.2748,18.750601 72.212343,-9.0827729 41.988623,-20.920647 8.9027633,-25.475012 -23.831407,-22.303478 c -44.1168,4.27437 -85.489463,22.59025964 -118.930213,52.651007 -7.14776,6.425301 -16.84885,16.716619 -23.18585,24.596511 -20.19913,25.11705 -34.77724,55.99548 -41.34629,87.57709 -0.61348,2.94938 -1.87828,9.82073 -1.87828,10.20424 0,0.13592 18.69266,-9.09935 41.53925,-20.52283 22.84659,-11.42347 41.65828,-20.76995 41.80376,-20.76995 0.14548,0 4.07503,7.62031 8.73234,16.93403 l 8.46783,16.93403 -57.37171,28.68249 c -31.55444,15.77537 -58.19502,28.94671 -59.20128,29.26965 -2.7785,0.8917 -7.2637,1.01815 -10.18233,0.28702 -2.7468,-0.68804 -5.43701,-1.9982 -7.50094,-3.65301 -1.17398,-0.94127 -11.2288,-13.33351 -40.14977,-49.48329 l -38.58356,-48.22754 14.56525,-11.657215 c 8.01089,-6.411469 14.72074,-11.71688 14.91078,-11.789808 0.21681,-0.0832 9.03004,10.723156 23.65612,29.005963 19.55771,24.44741 23.33375,29.03942 23.45449,28.5228 0.0791,-0.33866 0.56382,-2.52075 1.07705,-4.84908 6.69973,-30.39434 19.82455,-60.347895 37.7942,-86.254173 53.53124,-77.174293 145.101343,-117.223166 237.722823,-103.969873 43.32968,6.200083 84.169757,23.887463 118.512727,51.3265456 7.43947,5.9439442 13.16683,11.0943447 20.57347,18.5009694 7.40661,7.406624 12.55702,13.13398 18.50096,20.573469 45.36118,56.774417 63.27095,130.358452 49.08032,201.651102 -8.46728,42.53897 -27.69495,81.36179 -56.75821,114.60113 -5.05021,5.77588 -16.43539,17.16106 -22.21127,22.21127 -42.77156,37.39787 -94.808147,58.4613 -151.3294667,61.2553 -3.04924,0.15073 -6.88901,0.27406 -8.53280997,0.27406 H -3.5907767 Z"
       style="fill:#000000;stroke-width:0.26458335" />
  </g>
</svg>
