<?xml version="1.0" encoding="utf-8"?>
<!-- Generator: Adobe Illustrator 22.1.0, SVG Export Plug-In . SVG Version: 6.00 Build 0)  -->
<svg version="1.1" id="Capa_1" xmlns="http://www.w3.org/2000/svg" xmlns:xlink="http://www.w3.org/1999/xlink" x="0px" y="0px"
	 viewBox="0 0 490.3 490.3" style="enable-background:new 0 0 490.3 490.3;" xml:space="preserve">
<path class="st0" d="M451.5,308.7c0,0,0-0.1,0-0.1c5.2-18.7,8.1-38.3,8.1-58.6s-2.9-40-8.1-58.6c0,0,0-0.1,0-0.1
	c0-0.1-0.1-0.1-0.1-0.2c-2-7-4.3-13.8-6.9-20.4v-2.5c0-2.7-1.5-5-3.7-6.3c-2.6-5.9-5.5-11.8-8.7-17.4c1.3,1.1,3,1.9,4.8,1.9
	c4.1,0,7.5-3.4,7.5-7.5v-7.3c0-4.2-3.4-7.5-7.5-7.5s-7.5,3.4-7.5,7.5v7.3c0,0.5,0.2,0.8,0.3,1.3c-0.5-0.9-1.1-1.8-1.6-2.7
	c-0.1-0.2-0.2-0.3-0.3-0.5c-0.5-0.8-1-1.7-1.5-2.6c-0.1-0.1-0.2-0.2-0.3-0.3c-4.9-7.8-10.2-15.2-16-22.2c-0.1-0.1-0.1-0.2-0.1-0.2
	c-1.5-1.8-3-3.6-4.6-5.4c-0.1-0.1-0.3-0.2-0.4-0.3c-6-6.8-12.4-13.2-19.2-19.2c-0.1-0.1-0.2-0.3-0.3-0.4c-1.8-1.5-3.5-3.1-5.3-4.5
	c-0.1,0-0.1-0.1-0.2-0.1c-7.1-5.8-14.5-11.2-22.3-16.1c-0.1-0.1-0.2-0.2-0.3-0.3c-0.8-0.5-1.7-1-2.5-1.5c-0.2-0.1-0.3-0.2-0.5-0.3
	c-0.9-0.6-1.8-1.1-2.8-1.7c0.5,0.1,0.9,0.3,1.4,0.3h7.3c4.1,0,7.5-3.4,7.5-7.5s-3.4-7.5-7.5-7.5H353c-4.1,0-7.5,3.4-7.5,7.5
	c0,1.9,0.8,3.6,1.9,4.9c-5.7-3.2-11.6-6.1-17.6-8.8c-1.3-2.1-3.6-3.7-6.3-3.7h-2.5c-6.7-2.6-13.5-4.9-20.5-6.9c0,0-0.1,0-0.1-0.1
	c0,0-0.1,0-0.1,0c-18.7-5.2-38.3-8.1-58.6-8.1s-40,2.9-58.6,8.1c0,0-0.1,0-0.1,0c0,0-0.1,0-0.1,0.1c-7,2-13.8,4.3-20.5,6.9H160
	c-2.7,0-5,1.5-6.3,3.7c-5.9,2.6-11.8,5.5-17.4,8.7c1.1-1.3,1.9-3,1.9-4.8c0-4.2-3.4-7.5-7.5-7.5h-7.3c-4.1,0-7.5,3.4-7.5,7.5
	s3.4,7.5,7.5,7.5h7.3c0.5,0,0.8-0.2,1.3-0.3c-0.9,0.5-1.8,1.1-2.6,1.6c-0.2,0.1-0.4,0.2-0.6,0.4c-0.8,0.5-1.7,1-2.5,1.5
	c-0.1,0.1-0.2,0.2-0.3,0.3c-7.8,4.9-15.2,10.2-22.3,16c-0.1,0-0.1,0.1-0.2,0.1c-1.8,1.5-3.6,3-5.4,4.6c-0.1,0.1-0.2,0.3-0.3,0.4
	c-6.8,6-13.2,12.4-19.2,19.2c-0.1,0.1-0.3,0.2-0.4,0.3c-1.5,1.8-3.1,3.5-4.6,5.4c-0.1,0.1-0.1,0.2-0.1,0.2c-5.8,7-11.1,14.5-16,22.2
	c-0.1,0.1-0.2,0.2-0.3,0.3c-0.5,0.9-1.1,1.7-1.6,2.6c-0.1,0.1-0.1,0.2-0.2,0.3c-0.6,1-1.2,1.9-1.7,2.9c0.1-0.5,0.3-0.9,0.3-1.4v-7.3
	c0-4.2-3.4-7.5-7.5-7.5s-7.5,3.4-7.5,7.5v7.3c0,4.2,3.4,7.5,7.5,7.5c1.9,0,3.6-0.8,4.9-1.9c-3.2,5.7-6.1,11.6-8.8,17.6
	c-2.1,1.3-3.7,3.6-3.7,6.3v2.5c-2.6,6.7-4.9,13.5-6.9,20.4c0,0.1-0.1,0.1-0.1,0.2c0,0,0,0.1,0,0.1c-5.2,18.7-8.1,38.3-8.1,58.6
	s2.9,40,8.1,58.6c0,0,0,0.1,0,0.1c0,0.1,0.1,0.1,0.1,0.2c2,6.9,4.2,13.8,6.9,20.4v2.5c0,2.7,1.5,5,3.7,6.3
	c2.6,5.9,5.5,11.8,8.7,17.4c-1.3-1.1-3-1.9-4.8-1.9c-4.1,0-7.5,3.4-7.5,7.5v7.3c0,4.2,3.4,7.5,7.5,7.5s7.5-3.4,7.5-7.5v-7.3
	c0-0.4-0.2-0.8-0.3-1.3c0.6,0.9,1.1,1.9,1.7,2.8c0.1,0.1,0.1,0.2,0.2,0.3c0.5,0.9,1.1,1.8,1.6,2.7c0.1,0.2,0.3,0.3,0.4,0.5
	c4.9,7.7,10.1,15,15.9,22c0.1,0.1,0.1,0.2,0.1,0.2c1.5,1.8,3,3.6,4.6,5.4c0.1,0.1,0.3,0.2,0.4,0.3c6,6.8,12.4,13.2,19.2,19.2
	c0.1,0.1,0.2,0.3,0.3,0.4c1.8,1.5,3.5,3.1,5.3,4.5c0.1,0.1,0.1,0.1,0.2,0.1c7.1,5.8,14.5,11.1,22.3,16c0.1,0.1,0.2,0.2,0.3,0.3
	c0.8,0.5,1.7,1,2.5,1.5c0.2,0.1,0.3,0.2,0.5,0.3c0.9,0.6,1.8,1.1,2.8,1.7c-0.5-0.1-0.9-0.3-1.4-0.3h-7.3c-4.1,0-7.5,3.4-7.5,7.5
	s3.4,7.5,7.5,7.5h7.3c4.1,0,7.5-3.4,7.5-7.5c0-1.9-0.8-3.6-1.9-4.9c5.7,3.2,11.6,6.1,17.6,8.8c1.3,2.1,3.6,3.7,6.3,3.7h2.5
	c6.7,2.6,13.5,4.9,20.5,6.9c0,0,0.1,0,0.1,0.1c0.1,0,0.1,0,0.2,0c18.7,5.2,38.3,8.1,58.6,8.1s39.9-2.9,58.6-8.1c0.1,0,0.1,0,0.2,0
	c0,0,0.1,0,0.1-0.1c7-2,13.8-4.3,20.5-6.9h2.5c2.7,0,5-1.5,6.3-3.7c5.9-2.6,11.8-5.5,17.4-8.7c-1.1,1.3-1.9,3-1.9,4.8
	c0,4.2,3.4,7.5,7.5,7.5h7.3c4.1,0,7.5-3.4,7.5-7.5s-3.4-7.5-7.5-7.5h-7.3c-0.5,0-0.8,0.2-1.3,0.3c0.9-0.5,1.8-1.1,2.6-1.6
	c0.2-0.1,0.4-0.2,0.6-0.4c0.8-0.5,1.7-1,2.5-1.5c0.1-0.1,0.2-0.2,0.3-0.3c7.7-4.9,15.2-10.2,22.2-16c0.1-0.1,0.2-0.1,0.2-0.1
	c1.8-1.5,3.6-3,5.4-4.6c0.1-0.1,0.2-0.3,0.3-0.4c6.8-6,13.2-12.4,19.2-19.2c0.1-0.1,0.2-0.1,0.3-0.3c1.5-1.8,3.1-3.5,4.6-5.4
	c0.1-0.1,0.1-0.2,0.1-0.2c5.7-7,11-14.4,15.9-22c0.1-0.2,0.3-0.3,0.4-0.5c0.5-0.9,1.1-1.7,1.6-2.6c0.1-0.1,0.1-0.2,0.2-0.3
	c0.6-1,1.2-1.9,1.7-2.9c-0.1,0.5-0.3,0.9-0.3,1.4v7.3c0,4.2,3.4,7.5,7.5,7.5s7.5-3.4,7.5-7.5v-7.3c0-4.2-3.4-7.5-7.5-7.5
	c-1.9,0-3.6,0.8-4.9,1.9c3.2-5.7,6.1-11.6,8.8-17.6c2.1-1.3,3.7-3.6,3.7-6.3v-2.5c2.6-6.6,4.9-13.5,6.9-20.4
	C451.4,308.8,451.5,308.7,451.5,308.7z M415.1,355.2c-16.9,27.7-40.2,51-67.9,68c-0.2,0.1-0.5,0.3-0.7,0.4
	c-13.2,8-27.4,14.5-42.4,19.3l-20.9-83.8c31.2-11.9,56-36.6,67.8-67.8l83.8,20.9c-4.9,15-11.4,29.3-19.5,42.6
	C415.2,354.9,415.1,355,415.1,355.2z M137,423.5c-0.2-0.1-0.4-0.2-0.6-0.3c-27.7-16.9-51-40.3-67.9-68c-0.1-0.1-0.2-0.3-0.3-0.4
	c-8-13.3-14.6-27.5-19.4-42.5l83.8-20.9c11.9,31.2,36.6,56,67.8,67.8l-20.9,83.8C164.5,438,150.2,431.5,137,423.5z M68.5,144.7
	c16.9-27.7,40.2-51,67.9-68c0.2-0.1,0.5-0.3,0.7-0.4c13.2-8,27.4-14.5,42.4-19.3l20.9,83.8c-31.2,11.9-56,36.6-67.8,67.8l-83.8-20.9
	c4.9-15,11.4-29.3,19.5-42.6C68.3,144.9,68.4,144.8,68.5,144.7z M128.2,222.9c-2.1,8.7-3.3,17.7-3.3,27s1.2,18.3,3.3,27l-83.4,20.9
	C41,282.4,39,266.4,39,249.9s2-32.5,5.8-47.8L128.2,222.9z M139.9,249.9c0-56.2,45.7-101.8,101.8-101.8s101.8,45.7,101.8,101.8
	s-45.7,101.8-101.8,101.8S139.9,306.1,139.9,249.9z M346.5,76.3c0.2,0.1,0.4,0.2,0.6,0.3c27.7,16.9,51,40.2,67.9,67.9
	c0.1,0.2,0.3,0.4,0.4,0.7c8,13.2,14.5,27.5,19.4,42.4l-83.8,20.9c-11.9-31.2-36.6-56-67.8-67.8L304,56.9
	C319,61.8,333.3,68.3,346.5,76.3z M444.6,249.9c0,16.5-2,32.5-5.8,47.8l-83.4-20.9c2.1-8.7,3.3-17.7,3.3-27c0-9.3-1.2-18.3-3.3-27
	l83.4-20.9C442.5,217.4,444.6,233.4,444.6,249.9z M289.6,52.9l-20.9,83.4c-8.7-2.1-17.7-3.3-27-3.3s-18.3,1.2-27,3.3l-20.9-83.4
	c15.3-3.7,31.4-5.7,47.8-5.7S274.2,49.2,289.6,52.9z M193.9,447l20.9-83.4c8.7,2.1,17.7,3.3,27,3.3s18.3-1.2,27-3.3l20.9,83.4
	c-15.3,3.7-31.4,5.8-47.8,5.8S209.3,450.7,193.9,447z"/>
</svg>
