<?xml version="1.0" encoding="utf-8"?>
<!-- Generator: Adobe Illustrator 22.1.0, SVG Export Plug-In . SVG Version: 6.00 Build 0)  -->
<svg version="1.1" id="Capa_1" xmlns="http://www.w3.org/2000/svg" xmlns:xlink="http://www.w3.org/1999/xlink" x="0px" y="0px"
	 viewBox="0 0 490.3 490.3" style="enable-background:new 0 0 490.3 490.3;" xml:space="preserve">
<g>
	<path class="st0" d="M350.9,481.6c-28.4,0-56.7,0-85.1,0c0-0.1,0-0.2-0.1-0.2c-3.8-1.7-5-4.7-5-8.7c0-150.8,0-301.7,0-452.5
		c0-4.4,1.5-7.5,5.8-9c0.1,0,0.1-0.1,0.1-0.2c69.5,0,139.1,0,208.6,0c2.6,1,4.8,2.5,5.7,5.3c0,153.5,0,306.9,0,460.4
		c-0.8,1.1-1.5,2.2-2.4,3.2c-0.7,0.7-1.6,1.1-2.5,1.7c-28.4,0-56.7,0-85.1,0c-0.4-0.2-0.9-0.5-1.3-0.7c-2.5-1.3-3.8-3.4-4-6.2
		c-0.8-15-1.5-29.9-2.2-44.9c-0.5-10-0.9-20-1.4-29.9c-0.7-14.1-1.4-28.2-2.1-42.3c-0.5-10.1-1-20.3-1.5-30.4
		c-0.7-13.6-1.4-27.1-2-40.7c-0.5-10.6-1-21.1-1.5-31.7c-0.7-14.2-1.4-28.3-2.1-42.5c-0.5-9.9-0.9-19.8-1.4-29.7
		c0-0.7-0.2-1.4-0.3-2c-0.5,0.6-0.6,1.3-0.6,1.9c-0.5,9.1-0.9,18.2-1.3,27.3c-0.7,13.4-1.4,26.9-2,40.3c-0.5,10.6-1,21.3-1.5,31.9
		c-0.8,16.4-1.6,32.7-2.4,49.1c-0.5,10.7-1,21.4-1.5,32.1c-1,19.4-1.9,38.7-2.9,58.1c-0.7,13.7-1.3,27.4-1.9,41.2
		c-0.2,4.2-0.4,8.4-0.7,12.5c-0.2,2.6-1.5,4.5-3.8,5.8C352,481.1,351.4,481.4,350.9,481.6z M342,466.9c0.1-2.4,0.2-4.5,0.3-6.6
		c0.7-13.9,1.4-27.7,2-41.6c0.5-10.2,1-20.4,1.5-30.6c0.7-14.1,1.4-28.2,2.1-42.3c0.5-10,0.9-20,1.4-29.9c0.7-13.4,1.4-26.9,2-40.3
		c0.5-10.6,1-21.3,1.5-31.9c0.9-17.6,1.7-35.2,2.6-52.8c0.3-5.9,0.6-11.9,0.9-17.8c0.2-3.8,2.3-6.3,6-7.2c0.5-0.1,0.9-0.3,1.3-0.4
		c0-36.7,0-73.1,0-109.8c-29.3,0-58.6,0-87.7,0c-0.1,0.3-0.3,0.4-0.3,0.5c0,136.2,0,272.3-0.1,408.5c0,0.7,0.1,1.3,0.1,2
		c0,0.1,0.1,0.1,0.1,0.2c0,0.1,0.1,0.1,0.2,0.2C297.8,466.9,319.8,466.9,342,466.9z M466.2,466.9c0.1-0.2,0.3-0.4,0.3-0.5
		c0-136.2,0.1-272.4,0.1-408.5c0-0.7-0.1-1.3-0.1-2c0-0.1-0.1-0.1-0.1-0.2c0-0.1-0.1-0.1-0.2-0.2c-29.2,0-58.3,0-87.6,0
		c0,36.7,0,73.2,0,109.8c0.4,0.1,0.6,0.2,0.9,0.3c4.3,1.1,6.1,3.4,6.4,7.8c0.2,4.8,0.5,9.7,0.7,14.5c0.9,18.1,1.8,36.3,2.7,54.4
		c0.9,18.1,1.8,36.1,2.6,54.2c0.9,18.1,1.8,36.3,2.7,54.4c0.9,18.1,1.8,36.1,2.6,54.2c0.9,19.7,1.9,39.5,2.8,59.2
		c0,0.9,0.2,1.7,0.3,2.6C422.4,466.9,444.3,466.9,466.2,466.9z M334.1,26.2c-4.7-0.5-56.9-0.3-58.5,0.2c0,4.7,0,9.3,0,14.1
		c19.6,0,39,0,58.5,0C334.1,35.7,334.1,31,334.1,26.2z M407.9,26.1c0,4.9,0,9.6,0,14.4c19.6,0,39,0,58.4,0c0-4.9,0-9.6,0-14.4
		C446.8,26.1,427.4,26.1,407.9,26.1z M349.2,26.2c-0.4,3.9-0.3,12.8,0.2,14.3c4.2,0.4,41.9,0.2,43.5-0.2c0-4.7,0-9.3,0-14.1
		C378.3,26.2,363.8,26.2,349.2,26.2z"/>
	<path class="st0" d="M10.5,328.6c0-89.1,0-178.2,0-267.2c0.3-0.4,0.6-0.7,0.8-1.1c1.4-3.6,4.2-5,8-5c13.4,0,26.9,0,40.3,0
		c0.9,0,1.7,0,2.8,0c0-1.2,0-2,0-2.9c0-10.7,0-21.4,0-32.2c0-0.9,0-1.8,0.1-2.6c0.5-2.9,2-5,4.9-5.9c0.5-0.2,0.9-0.4,1.4-0.6
		c42.3,0,84.7,0,127,0c0.3,0.2,0.6,0.3,1,0.5c3.7,1.4,5.2,3.6,5.3,7.5c0,11.2,0,22.5,0,33.7c0,0.8,0,1.6,0,2.5c1.2,0,2,0,2.9,0
		c13.2,0,26.5,0,39.7,0c0.7,0,1.3,0,2,0c4,0.3,6.8,3.3,6.9,7.2c0,0.6,0,1.2,0,1.8c0,87.1,0,174.1,0,261.2c0,0.7,0,1.3,0,2
		c-0.2,3.9-2.9,6.8-6.8,7.1c-0.8,0.1-1.6,0-2.4,0c-74.7,0-149.4,0-224.2,0c-0.7,0-1.3,0-2,0c-3-0.2-5.3-1.7-6.6-4.4
		C11.2,329.7,10.8,329.2,10.5,328.6z M25.7,319.8c31.8,0,63.5,0,95.3,0c0-73,0-146,0-218.8c-1.2-0.7-2.3-1.3-3.4-2
		c-14.2-9.3-28.4-18.6-42.5-28c-1.5-1-2.8-1.7-4.7-1c-0.6,0.3-1.5,0.1-2.2,0.1c-13.3,0-26.6,0-39.9,0c-0.9,0-1.7,0-2.7,0
		C25.7,153.5,25.7,236.6,25.7,319.8z M238.5,319.8c0-83.3,0-166.4,0-249.7c-1,0-1.9,0-2.8,0c-13.2,0-26.5,0-39.7,0
		c-0.9,0-1.8,0.1-2.6-0.2c-1.4-0.5-2.5-0.1-3.7,0.7c-11.3,7.5-22.6,14.9-33.9,22.3c-3.4,2.3-6.9,4.6-10.3,6.8
		c-2.9,1.9-5.8,1.8-8.6-0.2c-0.3-0.2-0.6-0.4-0.9-0.6c-0.5,2.7-0.4,219.3,0.1,220.9C170.2,319.8,204.3,319.8,238.5,319.8z
		 M145.3,82.1c0.6-0.3,0.9-0.5,1.2-0.7c13.1-8.6,26.3-17.3,39.4-25.9c1.1-0.7,1.4-1.5,1.4-2.7c0-6.4,0-12.8,0-19.2
		c0-0.5-0.1-0.9-0.1-1.7c-0.9,0.5-1.5,0.8-2.1,1.2c-4.1,2.5-8.1,5-12.2,7.5c-9.8,6-19.5,12-29.3,18c-0.6,0.4-1.4,0.8-1.6,1.4
		c-0.7,1.8-1.2,3.6-1.8,5.4c-0.1,0.5-0.1,1,0,1.5C141.9,72,143.5,76.9,145.3,82.1z M77.1,31.9c0,1.2,0,1.9,0,2.5
		c0,6.1,0,12.2,0,18.3c0,1.5,0.5,2.4,1.7,3.2c12,7.8,24,15.7,35.9,23.6c1.3,0.9,2.7,1.8,4,2.6c1.5-2.7,2.3-6,2.4-8.7
		c0.1-4.7-0.5-9.4,0.5-14.1C106.9,50.2,92.2,41.2,77.1,31.9z M167.6,26.6c0-0.1-0.1-0.3-0.1-0.4c-0.3,0-0.5-0.1-0.8-0.1
		c-23.3,0-46.5,0-69.8,0.1c0,0-0.1,0.1-0.1,0.1c0,0.1-0.1,0.1-0.1,0.2c0.2,0.2,0.4,0.4,0.7,0.5c11.1,6.9,22.3,13.7,33.3,20.6
		c1.2,0.7,1.9,0.5,3-0.1c9.6-6,19.2-11.9,28.9-17.8C164.3,28.6,165.9,27.6,167.6,26.6z"/>
	<path class="st0" d="M10.5,414.6c0.3-0.8,0.7-1.6,0.8-2.5c2.7-17.4,16.2-30.6,33.8-32.9c2.3-0.3,4.7-0.4,7-0.5
		c12.3,0,24.7-0.2,37,0c18.9,0.3,32,12,37.1,26c1.5,4.2,2.3,8.5,2.3,13c0,13.7,0,27.3,0,41c0,5.2-3,8.2-8.2,8.2
		c-33.7,0-67.4,0-101.2,0c-3.8,0-6.5-1.4-7.9-5.1c-0.2-0.4-0.5-0.7-0.7-1.1C10.5,445.5,10.5,430,10.5,414.6z M25.5,430.1
		c29.5,0,58.7,0,88.1,0c0-0.6,0.1-1.1,0.1-1.6c0-3.7,0.1-7.5,0-11.2c-0.4-9.3-4.8-16.2-12.8-20.7c-0.5-0.3-1-0.4-1.8-0.7
		c0,1,0,1.8,0,2.7c0,4.5,0.1,9,0,13.4c-0.1,4.1-3,7-7,7.3c-0.7,0-1.3,0-2,0c-13.6,0-27.2,0-40.8,0c-1,0-1.9,0-2.9-0.1
		c-3-0.5-4.9-2.2-5.8-5c-0.3-1-0.3-2-0.3-3c0-4.4,0-8.8,0-13.2c0-0.6-0.1-1.2-0.2-2c-0.8,0.4-1.3,0.6-1.8,0.8
		c-6.1,3.5-10.1,8.6-11.9,15.4C24.9,417.9,25.8,423.9,25.5,430.1z M113.6,445.1c-29.4,0-58.6,0-87.9,0c0,2.4,0,4.6,0,6.8
		c2.6,0.5,86.3,0.4,87.9-0.1C113.6,449.7,113.6,447.5,113.6,445.1z M84.2,393.6c-9.9,0-19.4,0-29.1,0c0,3.6,0,7.1,0,10.6
		c2.6,0.5,27.5,0.4,29.1-0.1C84.2,400.7,84.2,397.2,84.2,393.6z"/>
	<path class="st0" d="M194.4,467.1c-16.5,0-32.9,0-49.4,0c-0.7,0-1.5,0-2.2,0c-3.8-0.3-6.6-3-7-6.8c-0.1-0.5,0-1,0-1.5
		c0-13.5-0.1-27,0-40.6c0.1-16.2,9.6-30.4,24.4-36.3c4.9-2,10-3,15.3-3c12.8,0,25.6-0.1,38.4,0c21.8,0.2,36,15.6,38.9,31.9
		c0.4,2.4,0.7,4.8,0.7,7.2c0.1,13.6,0,27.2,0,40.8c0,1.9-0.3,3.7-1.4,5.2c-1.4,1.9-3.3,2.9-5.6,3c-0.7,0.1-1.3,0-2,0
		C227.7,467.1,211,467.1,194.4,467.1z M150.7,430c5.9,0.5,86.3,0.3,87.9-0.3c0-4.6,0.3-9.3-0.1-13.9c-0.6-8.3-4.8-14.6-11.9-19
		c-0.7-0.4-1.5-0.8-2.6-1.3c0,1.1,0,1.8,0,2.5c0,4.4-0.2,8.8,0.1,13.2c0.2,4-2.8,8-7.8,8c-14.4-0.1-28.8,0-43.2,0
		c-4.9,0-7.8-3-7.8-7.8c0-4.6,0-9.3,0-13.9c0-0.5-0.1-1.1-0.2-1.7c-0.5,0.2-0.8,0.2-1,0.4c-0.6,0.3-1.2,0.6-1.7,1
		c-7.5,4.8-11.5,11.6-11.7,20.5c-0.1,3.6,0,7.2,0,10.8C150.6,428.9,150.6,429.4,150.7,430z M150.7,452.1c5.5,0.5,86.3,0.3,87.9-0.3
		c0-2.2,0.2-4.4-0.1-6.7c-29.4,0-58.5,0-87.8,0C150.7,447.5,150.7,449.7,150.7,452.1z M180,393.6c0,3.7,0,7.2,0,10.7
		c9.8,0,19.4,0,29.1,0c0-3.6,0-7.1,0-10.7C199.4,393.6,189.8,393.6,180,393.6z"/>
	<path class="st0" d="M451.9,419.3c0,1.2,0,2.5,0,3.7c-0.1,4-3.2,7.1-7.2,7.2c-3.9,0.1-7.2-2.7-7.5-6.6c-0.2-2.9-0.2-5.9,0-8.8
		c0.3-3.9,3.6-6.8,7.4-6.7c3.9,0.1,7.1,3.2,7.2,7.2C451.9,416.6,451.9,418,451.9,419.3z"/>
	<path class="st0" d="M451.9,448.6c0,1.3,0,2.6,0,4c-0.2,3.9-3.2,7-7.1,7.1c-4,0.1-7.2-2.5-7.5-6.5c-0.2-3-0.2-6,0-9
		c0.3-3.9,3.6-6.7,7.5-6.6c3.8,0.1,6.9,3.2,7.1,7.1C451.9,446,451.9,447.3,451.9,448.6z"/>
	<path class="st0" d="M451.9,389.9c0,1.3,0.1,2.6,0,4c-0.2,3.9-3.3,6.9-7.2,7c-3.7,0.1-7.1-2.6-7.4-6.4c-0.2-3.1-0.2-6.2,0-9.2
		c0.3-3.9,3.6-6.5,7.6-6.4c3.8,0.1,6.8,3.1,7,6.9C451.9,387.1,451.9,388.5,451.9,389.9C451.9,389.9,451.9,389.9,451.9,389.9z"/>
	<path class="st0" d="M231.4,172.9c0,14.1,0,28.2,0,42.3c0,0.7,0,1.5,0,2.2c-0.2,3.8-3.1,6.7-6.9,7c-0.5,0-1,0-1.5,0
		c-21.3,0-42.6,0-63.9,0c-1.2,0-2.4-0.1-3.5-0.4c-2.7-0.9-4.4-2.8-4.9-5.7c-0.1-0.8-0.1-1.6-0.1-2.4c0-28.6,0-57.2,0-85.7
		c0-0.6,0-1.2,0-1.8c0.3-3.9,3.1-6.6,7-6.9c0.5,0,1,0,1.5,0c21.2,0,42.5,0,63.7,0c0.9,0,1.9,0,2.8,0.2c3.1,0.7,5.4,3.3,5.7,6.5
		c0.1,0.7,0,1.5,0,2.2C231.4,144.6,231.4,158.8,231.4,172.9z M216.6,158.6c-2.8-0.5-49.6-0.3-51.2,0.1c0,16.9,0,33.8,0,50.7
		c2.6,0.5,49.5,0.3,51.2-0.1C216.6,192.5,216.6,175.6,216.6,158.6z M165.3,143.3c3.5,0.5,49.6,0.3,51.1-0.2c0-2.2,0-4.5,0-6.7
		c-3.6-0.5-49.5-0.3-51.1,0.2C165.3,138.8,165.3,141,165.3,143.3z"/>
</g>
</svg>
