<?xml version="1.0" encoding="utf-8"?>
<!-- Generator: Adobe Illustrator 22.1.0, SVG Export Plug-In . SVG Version: 6.00 Build 0)  -->
<svg version="1.1" id="Capa_1" xmlns="http://www.w3.org/2000/svg" xmlns:xlink="http://www.w3.org/1999/xlink" x="0px" y="0px"
	 viewBox="0 0 490.3 490.3" style="enable-background:new 0 0 490.3 490.3;" xml:space="preserve">
<path class="st0" d="M472.5,480.6c-93.5,0-187.1,0-280.6,0c-0.4-0.1-0.8-0.3-1.2-0.4c-9.1-1.3-17-5-23.9-11c-3-2.6-6-5.2-9-7.8
	c-0.4-0.4-0.9-0.7-1.4-1.1c-0.2,0.7-0.4,1.2-0.6,1.8c-3.5,9.6-10.3,15.7-20.2,18.1c-0.5,0.1-0.9,0.3-1.4,0.5c-31.7,0-63.4,0-95.1,0
	c-0.4-0.1-0.8-0.3-1.2-0.4c-11.1-2.3-19.3-10.6-21.5-21.7c-0.1-0.8-0.5-1.5-0.8-2.2c0-51,0-101.9,0-152.9c0.3-0.7,0.6-1.5,0.8-2.2
	c2.6-13.3,13.5-22.3,26.9-22.3c28.9,0,57.8,0,86.7,0c8.7,0,15.8,3.6,21.4,10.3c0.4,0.4,0.7,0.9,1.2,1.4c0.5-0.4,0.9-0.7,1.2-1.1
	c12-12,23.9-24,36-35.9c1.1-1,1.1-2,0.7-3.3c-8-29.6-15.9-59.2-23.8-88.8c-6.6-24.7-13.2-49.5-19.8-74.2c-0.3-1.3-0.6-2.7-0.5-4.1
	c0.2-3.3,2.4-6.9,7.7-8.3c27.6-7.3,55.2-14.7,82.8-22.1c0.6-0.2,1.2-0.4,2-0.6c0-0.9,0-1.6,0-2.4c0-7.6,0-15.2,0-22.8
	c0-4.7,2.3-7.8,6.7-9.3c0.3-0.1,0.6-0.3,1-0.4c75.2,0,150.3,0,225.5,0c0.7,0.3,1.5,0.6,2.2,0.9c2.6,1.1,4.1,3.2,5.2,5.6
	c0,150.2,0,300.3,0,450.5c-0.8,2.3-2.1,4.2-4.2,5.4C474,479.9,473.2,480.3,472.5,480.6z M461,462.4c0-142.4,0-284.6,0-426.9
	c-68.1,0-136.1,0-204.3,0c0,84.4,0,168.7,0,253.1c5.9,0,11.6,0,17.6,0c0-1.1,0-2,0-2.9c0-58.7,0-117.4,0-176.1
	c0-6.2,3.4-9.7,9.5-9.9c3.1-0.1,6.1-0.6,8.9-1.9c9.5-4.4,14.6-11.8,14.9-22.3c0.2-5.6,4.7-9.3,9.5-9.2c27.9,0.1,55.7,0.1,83.6,0
	c4.6,0,9.3,3.6,9.3,9.1c0,2.8,0.5,5.5,1.4,8.1c3.4,9.6,12.3,16.1,22.7,16.2c5.4,0.1,9.3,4.6,9.3,9c-0.1,12.2,0,24.3,0,36.5
	c0,4.9-3.8,8.7-8.6,8.9c-4.8,0.2-8.9-3.2-9.4-8c-0.1-0.9-0.1-1.7-0.1-2.6c0-8,0-15.9,0-23.9c0-0.8,0-1.7,0-2.5
	c-17.2-4.7-28-15.5-32.6-32.5c-22.7,0-45.3,0-67.8,0c-4.7,17-15.5,27.8-32.4,32.4c-0.1,0.4-0.1,0.7-0.1,1c0,56.5,0,113.1,0,169.6
	c0,0.3,0.1,0.6,0.1,0.9c0,0.1,0.1,0.1,0.1,0.2c0,0.1,0.1,0.1,0.2,0.1c3.7,0.4,46,0.2,47.8-0.2c-12.5-6.3-20.8-16-23.9-29.6
	c-3.1-13.6-0.2-26.1,8.5-37c15.6-19.6,44.8-21.7,63.1-4.6c9.1,8.5,14,19.1,13.9,31.7c-0.2,18.2-9.1,31.1-24.8,39.8
	c4.1,0.2,8.2,0.1,12.2,0.2c2,0,4.1,0.1,6.1,0.4c19.2,3.3,30.4,22.9,23.7,41.2c-0.2,0.5-0.3,1-0.5,1.7c2.2,0.2,4.3,0.5,6.6,0.7
	c0-1.1,0-2,0-2.9c0-32.7,0-65.3,0-98c0-1,0-2,0.1-3c0.5-4.4,4-7.7,8.4-7.9c4.2-0.3,8.2,2.6,9.3,6.7c0.3,1.1,0.3,2.3,0.3,3.4
	c0,37.1,0,74.1,0,111.2c0,1.5,0.3,2.8,1.2,4c2.7,4,4.3,8.5,4.8,13.3c1.4,14.6-6.7,27.5-20.5,32.5c-0.6,0.2-1.1,0.5-1.7,0.8
	c4.7,10.9,4.3,21.3-2.4,30.9c-6.6,9.7-16.2,13.9-28.1,13.5c3.4,8.4,3.5,16.8,0.1,25.1C418.4,462.4,439.6,462.4,461,462.4z
	 M196.6,272.2c-0.7,0.6-1.2,1-1.6,1.4c-12.2,12.2-24.5,24.5-36.7,36.7c-0.9,0.9-1.2,1.8-1.2,3.1c0,40.5,0,80.9,0,121.4
	c0,1.5,0.5,2.4,1.6,3.3c6.5,5.6,12.9,11.1,19.3,16.8c5.8,5.2,12.6,7.6,20.4,7.6c56.1-0.1,112.2,0,168.3,0c0.8,0,1.6,0,2.4,0
	c6.2-0.3,11.1-4.8,12.1-11.1c0.8-5.7-2.8-11.6-8.4-13.4c-1.8-0.6-3.7-0.8-5.5-0.8c-14.7-0.1-29.4,0-44.1,0c-8,0-16.1,0-24.1,0
	c-4.6,0-8.3-3.6-8.7-8.3c-0.4-4.4,2.7-8.7,7.2-9.5c1.2-0.2,2.4-0.3,3.7-0.3c32.1,0,64.3,0,96.4,0c0.8,0,1.6,0,2.4,0
	c6.2-0.2,11.2-4.8,12.1-11c0.9-5.9-2.9-11.8-8.8-13.6c-1.6-0.5-3.3-0.6-4.9-0.7c-10.8-0.1-21.6,0-32.4,0c-22.2,0-44.5,0-66.7,0
	c-4.9,0-8.6-3.6-9.1-8.5c-0.4-4.6,3-8.8,7.7-9.5c1.1-0.2,2.2-0.2,3.2-0.2c38.6,0,77.2,0,115.8,0c0.9,0,1.7,0,2.6,0
	c6.2-0.3,11.2-5.1,11.8-11.3c0.6-6.2-3.3-12-9.3-13.5c-1.6-0.4-3.3-0.5-4.9-0.5c-32.6,0-65.3,0-97.9,0c-6.7,0-13.3,0-20,0
	c-4.9,0-8.6-3.6-9-8.5c-0.3-4.6,3.1-8.7,7.8-9.4c1-0.2,2-0.2,3-0.2c29.2,0,58.4,0,87.5,0c0.9,0,1.9,0,2.8,0
	c6.1-0.4,11.2-5.3,11.7-11.2c0.5-6.5-3.5-12.2-9.6-13.6c-1.5-0.3-3.2-0.4-4.7-0.4c-58.4,0-116.8,0-175.3,0c-5.1,0-8.9-3.1-9.9-7.6
	c-1.1-5.1-2.5-10.1-3.8-15.1C198.7,280.3,197.7,276.5,196.6,272.2z M77.4,297c-1,0-1.7,0-2.4,0c-10.4,0-20.7,0-31.1,0
	c-0.4,0-0.9,0-1.3,0c-4,0.3-7.3,2.9-8.3,6.6c-0.3,1.2-0.3,2.6-0.3,3.9c0,48.2,0,96.4,0,144.6c0,0.7,0,1.3,0,2
	c0.2,3.8,2.8,7.1,6.4,8.1c1.1,0.3,2.3,0.3,3.4,0.3c28.3,0,56.6,0,84.9,0c0.5,0,1,0,1.5,0c4.1-0.2,7.5-3.1,8.3-7
	c0.2-0.9,0.2-1.9,0.2-2.8c0-9.4,0-18.8,0-28.2c0-39.1,0-78.2,0-117.3c0-1.1,0-2.3-0.3-3.4c-1.1-4.2-4.6-6.7-9.2-6.7
	c-10.6,0-21.3,0-31.9,0c-0.6,0-1.1,0.1-1.9,0.1c0,1,0,1.9,0,2.9c0,33.2,0,66.3,0,99.5c0,0.7,0,1.4,0,2.2c-0.2,4.7-3.9,8.5-8.6,8.7
	c-4.8,0.2-8.8-3.1-9.4-7.8c-0.1-1.1-0.1-2.2-0.1-3.3c0-33,0-66,0-99C77.4,299.2,77.4,298.2,77.4,297z M166.2,90.4
	c0.2,1,0.4,1.8,0.6,2.5c2.4,8.9,4.8,17.9,7.2,26.8c11.4,42.5,22.8,85.1,34.2,127.6c0.2,0.7,0.4,1.4,0.7,2c0.5,1.3,1.2,2.6,1.5,4
	c2.8,10.9,5.6,21.9,8.4,32.8c0.2,0.8,0.5,1.6,0.7,2.4c3.6,0.4,16.3,0.3,17.9-0.2c-0.2-0.7-0.3-1.4-0.5-2.1
	c-9.4-35-18.9-70-28.3-104.9c-2-7.5-4.1-15.1-6.1-22.6c-1.5-5.5,1-10,6.4-11.7c0.5-0.1,1-0.3,1.4-0.5c8.4-3.1,13.6-9,15.8-17.6
	c1-3.9,0.7-7.9-0.2-11.8c-1.2-5,1.5-9.5,6.4-10.9c1-0.3,2.1-0.6,3.1-0.9c0.9-0.3,1.9-0.6,2.7-0.9c0-11.2,0-22.2,0-33.4
	C214.3,77.5,190.4,83.9,166.2,90.4z M333.7,249c0.1,13.8,11.4,25.2,25.2,25.2c13.9,0,25.3-11.5,25.2-25.4
	c-0.1-13.9-11.4-25.1-25.3-25C344.9,223.9,333.6,235.2,333.7,249z M238.3,147c-2.5,2.8-4.7,5.6-7.4,8c-2.7,2.4-5.7,4.4-8.8,6.7
	c5.2,19.4,10.5,39,15.8,58.6c0.1,0,0.2,0,0.4-0.1C238.3,195.8,238.3,171.5,238.3,147z"/>
<path class="st0" d="M443.5,189.3c0,5.1-4,9-9.1,9c-5,0-8.9-4-9-9c0-5,4.1-9.2,9.1-9.2C439.4,180.2,443.5,184.3,443.5,189.3z"/>
<path class="st0" d="M95.5,435.5c0,5.1-4.1,9.1-9.2,9c-4.9-0.1-8.9-4.1-8.9-9.1c0-5,4-9.1,9.1-9.1C91.5,426.4,95.5,430.4,95.5,435.5
	z"/>
</svg>
