<?xml version="1.0" encoding="utf-8"?>
<!-- Generator: Adobe Illustrator 22.1.0, SVG Export Plug-In . SVG Version: 6.00 Build 0)  -->
<svg version="1.1" id="Capa_1" xmlns="http://www.w3.org/2000/svg" xmlns:xlink="http://www.w3.org/1999/xlink" x="0px" y="0px"
	 viewBox="0 0 490.3 490.3" style="enable-background:new 0 0 490.3 490.3;" xml:space="preserve">
<g>
	<g>
		<g>
			<path class="st0" d="M358,298c0-4.3-3.5-7.8-7.8-7.8h-46.9c-4.3,0-7.8,3.5-7.8,7.8c0,4.3,3.5,7.8,7.8,7.8h46.9
				C354.5,305.8,358,302.3,358,298z"/>
			<path class="st0" d="M326.8,94.9v-39c0-4.3-3.5-7.8-7.8-7.8c-4.3,0-7.8,3.5-7.8,7.8v39c0,21.5,17.5,39,39,39h70.3v148.4
				c0,4.3,3.5,7.8,7.8,7.8c4.3,0,7.8-3.5,7.8-7.8V126.1c0-4.3-3.5-7.8-7.8-7.8h-78.1C337.3,118.3,326.8,107.8,326.8,94.9z"/>
			<path class="st0" d="M350.2,196.4h-62.5c-4.3,0-7.8,3.5-7.8,7.8s3.5,7.8,7.8,7.8h62.5c4.3,0,7.8-3.5,7.8-7.8
				C358,199.9,354.5,196.4,350.2,196.4z"/>
			<path class="st0" d="M264.3,204.2c0-4.3-3.5-7.8-7.8-7.8h-46.9c-4.3,0-7.8,3.5-7.8,7.8s3.5,7.8,7.8,7.8h46.9
				C260.8,212.1,264.3,208.6,264.3,204.2z"/>
			<path class="st0" d="M209.6,243.3c-4.3,0-7.8,3.5-7.8,7.8c0,4.3,3.5,7.8,7.8,7.8h15.6c4.3,0,7.8-3.5,7.8-7.8
				c0-4.3-3.5-7.8-7.8-7.8L209.6,243.3L209.6,243.3z"/>
			<path class="st0" d="M209.6,165.2h78.1c4.3,0,7.8-3.5,7.8-7.8c0-4.3-3.5-7.8-7.8-7.8h-78.1c-4.3,0-7.8,3.5-7.8,7.8
				C201.8,161.7,205.3,165.2,209.6,165.2z"/>
			<path class="st0" d="M256.5,258.9h78.1c4.3,0,7.8-3.5,7.8-7.8s-3.5-7.8-7.8-7.8h-78.1c-4.3,0-7.8,3.5-7.8,7.8
				S252.2,258.9,256.5,258.9z"/>
			<path class="st0" d="M303.4,337c-4.3,0-7.8,3.5-7.8,7.8s3.5,7.8,7.8,7.8H319c4.3,0,7.8-3.5,7.8-7.8s-3.5-7.8-7.8-7.8H303.4z"/>
			<path class="st0" d="M272.1,290.1h-62.5c-4.3,0-7.8,3.5-7.8,7.8c0,4.3,3.5,7.8,7.8,7.8h62.5c4.3,0,7.8-3.5,7.8-7.8
				C279.9,293.6,276.4,290.1,272.1,290.1z"/>
			<path class="st0" d="M272.1,337h-62.5c-4.3,0-7.8,3.5-7.8,7.8s3.5,7.8,7.8,7.8h62.5c4.3,0,7.8-3.5,7.8-7.8S276.4,337,272.1,337z"
				/>
			<path class="st0" d="M458.1,330.7l-15.6-15.6c-12-12-30.3-12-42.3,0L297.8,417.4c-1.5,1.5-2.3,3.5-2.3,5.5v46.9
				c0,4.3,3.5,7.8,7.8,7.8h46.9c2.1,0,4.1-0.8,5.5-2.3L458.1,373C470.5,360.5,470.5,343.1,458.1,330.7z M390.1,347.3l12.4,12.4
				l-67.9,67.9l-12.4-12.4L390.1,347.3z M311.2,462v-35.8L347,462H311.2z M358,450.9l-12.4-12.4l67.9-67.9l12.4,12.4L358,450.9z
				 M447,361.9L436.9,372l-35.8-35.8l10.1-10.1c6.2-6.2,14-6.2,20.2,0l15.6,15.6C453.3,348.1,453.3,355.6,447,361.9z"/>
			<path class="st0" d="M272.1,462H69.1c-12.9,0-23.4-10.5-23.4-23.4V48c0-12.9,10.5-23.4,23.4-23.4h246.7l75.8,75.8
				c3.1,3.1,8,3.1,11,0c3.1-3.1,3.1-8,0-11l-78.1-78.1C323,9.8,321.1,9,319,9H69.1C47.5,9,30,26.5,30,48v390.5c0,21.5,17.5,39,39,39
				h203.1c4.3,0,7.8-3.5,7.8-7.8C279.9,465.5,276.4,462,272.1,462z"/>
			<path class="st0" d="M272.1,383.9h-62.5c-4.3,0-7.8,3.5-7.8,7.8c0,4.3,3.5,7.8,7.8,7.8h62.5c4.3,0,7.8-3.5,7.8-7.8
				C279.9,387.4,276.4,383.9,272.1,383.9z"/>
			<path class="st0" d="M170.6,157.4c0-4.3-3.5-7.8-7.8-7.8h-46.9c-4.3,0-7.8,3.5-7.8,7.8v46.9c0,4.3,3.5,7.8,7.8,7.8h46.9
				c4.3,0,7.8-3.5,7.8-7.8V157.4z M155,196.4h-31.2v-31.2H155V196.4z"/>
			<path class="st0" d="M115.9,399.5h46.9c4.3,0,7.8-3.5,7.8-7.8v-46.9c0-4.3-3.5-7.8-7.8-7.8h-46.9c-4.3,0-7.8,3.5-7.8,7.8v46.9
				C108.1,396,111.6,399.5,115.9,399.5z M123.7,352.6H155v31.2h-31.2C123.7,383.9,123.7,352.6,123.7,352.6z"/>
			<path class="st0" d="M126,303.5c1.5,1.5,3.5,2.3,5.5,2.3c0.3,0,0.5,0,0.8,0c2.3-0.2,4.4-1.5,5.7-3.4l31.2-46.9
				c2.4-3.6,1.4-8.4-2.2-10.8c-3.6-2.4-8.4-1.4-10.8,2.2l-26,38.9l-8.9-8.9c-3.1-3.1-8-3.1-11,0s-3.1,8,0,11L126,303.5z"/>
		</g>
	</g>
</g>
</svg>
