<?xml version="1.0" encoding="utf-8"?>
<!-- Generator: Adobe Illustrator 22.1.0, SVG Export Plug-In . SVG Version: 6.00 Build 0)  -->
<svg version="1.1" id="Capa_1" xmlns="http://www.w3.org/2000/svg" xmlns:xlink="http://www.w3.org/1999/xlink" x="0px" y="0px"
	 viewBox="0 0 490.3 490.3" style="enable-background:new 0 0 490.3 490.3;" xml:space="preserve">
<g>
	<g>
		<path class="st0" d="M348.3,137.9h-65.6V89.5c0,0,0,0,0,0c0-33.7-27.4-61.1-61.1-61.1c-13.5,0-26.1,4.4-36.2,11.9
			c-10.1-7.5-22.7-11.9-36.2-11.9C115.4,28.4,88,55.8,88,89.5c0,0,0,0,0,0V138H58.6c0,0,0,0,0,0c0,0,0,0,0,0H22.4
			c-1.8,0-3.5,0.7-4.8,2c-1.3,1.3-2,3-2,4.8v118.6c0,3.7,3,6.8,6.8,6.8s6.8-3,6.8-6.8V151.5h22.6v279.2l-22.6,22.6V290.5
			c0-3.7-3-6.8-6.8-6.8s-6.8,3-6.8,6.8v179.3c0,0,0,0,0,0.1c0,0.2,0,0.4,0,0.6c0,0,0,0,0,0c0.2,1.5,0.8,3,1.9,4.1
			c0.1,0.1,0.2,0.2,0.3,0.3c0.1,0,0.1,0.1,0.2,0.1c0.1,0.1,0.3,0.2,0.4,0.3c0.1,0,0.1,0.1,0.2,0.1c0.2,0.1,0.3,0.2,0.5,0.3
			c0,0,0,0,0.1,0c0.2,0.1,0.4,0.2,0.6,0.3c0,0,0,0,0,0c0.2,0.1,0.3,0.1,0.5,0.2c0,0,0.1,0,0.1,0c0.1,0,0.2,0.1,0.4,0.1
			c0.1,0,0.2,0.1,0.3,0.1c0,0,0.1,0,0.1,0c0.4,0.1,0.8,0.1,1.2,0.1h72.4c0,0,0,0,0.1,0h126.7c3.7,0,6.8-3,6.8-6.8
			c0-3.8-3-6.8-6.8-6.8H101.6V151.5h58.8v37.6c0,3.7,3,6.8,6.8,6.8c3.7,0,6.8-3,6.8-6.8v-37.6h95v37.6c0,3.7,3,6.8,6.8,6.8
			c3.7,0,6.8-3,6.8-6.8v-37.6h58.8v46.6c0,3.7,3,6.8,6.8,6.8s6.8-3,6.8-6.8v-53.4C355.1,141,352,137.9,348.3,137.9z M38.8,462.9
			l19.8-19.8l19.8,19.8H38.8z M88,453.3l-22.6-22.6V151.5H88V453.3z M160.4,89.5C160.4,89.5,160.4,89.6,160.4,89.5l0,48.4h-58.8
			V89.5c0,0,0,0,0,0c0-26.2,21.3-47.5,47.5-47.5c9.6,0,18.6,2.9,26.1,7.8C166,60.5,160.4,74.4,160.4,89.5z M196.6,89.5V138H174V89.5
			c0,0,0,0,0,0c0-11.7,4.3-22.4,11.3-30.7C192.4,67.1,196.6,77.8,196.6,89.5C196.6,89.5,196.6,89.5,196.6,89.5z M269.1,137.9h-58.8
			V89.5c0,0,0,0,0,0c0-15.2-5.6-29-14.7-39.7c7.5-4.9,16.4-7.8,26.1-7.8c26.2,0,47.5,21.3,47.5,47.5c0,0,0,0,0,0V137.9z"/>
	</g>
</g>
<g>
	<g>
		<path class="st0" d="M472.3,272.8h-38.6c5.7-6.7,9.2-15.4,9.2-24.9c0-21.2-17.3-38.5-38.5-38.5c-24.7,0-39,15.7-44.9,27.4
			c-1.6-0.2-3.2-0.3-4.9-0.3c-1.7,0-3.3,0.1-4.9,0.3c-5.9-11.7-20.1-27.4-44.9-27.4c-21.2,0-38.5,17.3-38.5,38.5
			c0,9.5,3.5,18.2,9.2,24.9h-38.6c-3.7,0-6.8,3-6.8,6.8v54.3c0,3.7,3,6.8,6.8,6.8h11.3v129c0,3.7,3,6.8,6.8,6.8h199.1
			c3.7,0,6.8-3,6.8-6.8v-129h11.3c3.7,0,6.8-3,6.8-6.8v-54.3C479.1,275.9,476,272.8,472.3,272.8z M354.6,250.2
			c13.9,0,25.5,9.7,28.6,22.6H326C329.1,259.9,340.7,250.2,354.6,250.2z M311.6,462.9h-49.8V340.7h49.8V462.9z M311.6,327.2h-67.9
			v-40.7h67.9V327.2z M312.1,272.8h-7.3c0,0,0,0,0,0c-13.7,0-24.9-11.2-24.9-24.9c0-13.7,11.2-24.9,24.9-24.9
			c18,0,27.3,10.7,31.5,17.7C323.7,246.7,314.4,258.6,312.1,272.8z M384,462.9h-58.8V340.7H384V462.9z M384,327.2h-58.8v-40.7H384
			V327.2z M373,240.8c4.2-7,13.5-17.7,31.4-17.7c13.7,0,24.9,11.2,24.9,24.9c0,13.7-11.2,24.9-24.9,24.9c0,0,0,0,0,0h-7.3
			C394.8,258.6,385.6,246.7,373,240.8z M447.4,462.9h-49.8V340.7h49.8V462.9z M465.5,327.2h-67.9v-40.7h67.9V327.2z"/>
	</g>
</g>
</svg>
