<?xml version="1.0" encoding="utf-8"?>
<!-- Generator: Adobe Illustrator 22.1.0, SVG Export Plug-In . SVG Version: 6.00 Build 0)  -->
<svg version="1.1" id="Capa_1" xmlns="http://www.w3.org/2000/svg" xmlns:xlink="http://www.w3.org/1999/xlink" x="0px" y="0px"
	 viewBox="0 0 490.3 490.3" style="enable-background:new 0 0 490.3 490.3;" xml:space="preserve">
<g>
	<g>
		<path class="st0" d="M449.2,175H285.8c-7.3-25.3-21.5-48.4-41.5-66.3C214,81.5,174.8,69.1,134.1,73.6
			c-65.4,7.2-117.7,60-124.3,125.5c-3.6,35.7,6.1,71.1,27.5,99.5c20.5,27.2,49.9,46.1,83,53.2l34.8,34.8c2.9,2.9,6.8,4.5,10.8,4.5
			c2,0,4-0.4,5.9-1.2c5.7-2.4,9.4-7.9,9.4-14.1v-24.4c5.7-1.3,11.3-2.9,16.7-4.8v1c0,17.1,13.9,31,31,31h52l27.7,27.7
			c2.5,2.5,5.8,3.8,9.1,3.8c1.7,0,3.4-0.3,5-1c4.8-2,8-6.7,8-11.9v-18.6h118.5c17.1,0,31-13.9,31-31V205.9
			C480.2,188.9,466.3,175,449.2,175z M172.5,338.2c-3.5,0.6-6.1,3.7-6.1,7.3v30.4c0,0.2,0,0.3-0.3,0.5c-0.3,0.1-0.4,0-0.5-0.1
			l-36.4-36.4c-1-1-2.3-1.7-3.8-2c-30.4-6.1-57.5-23.1-76.3-48.1c-19.1-25.4-27.9-57.1-24.6-89.2c2.9-28.2,15.7-55.1,36-75.6
			c20.3-20.5,47.1-33.6,75.3-36.7c4.9-0.5,9.8-0.8,14.6-0.8c31.2,0,60.6,11.2,84.1,32.2c26.8,24,42.1,58.3,42.1,94.2
			C276.5,275.1,232.8,327.4,172.5,338.2z M465.4,347.6c0,8.9-7.3,16.2-16.2,16.2H323.3c-4.1,0-7.4,3.3-7.4,7.4v21.5L289.1,366
			c-1.4-1.4-3.3-2.2-5.2-2.2h-55.1c-8.9,0-16.2-7.3-16.2-16.2v-7.2c47.2-23.2,78.7-71.6,78.7-126.5c0-8.1-0.7-16.2-2.1-24.1h160
			c8.9,0,16.2,7.3,16.2,16.2L465.4,347.6L465.4,347.6z"/>
	</g>
</g>
<g>
	<g>
		<path class="st0" d="M422.9,232.2c-2.9-2.9-7.6-2.9-10.4,0L339,305.7l-34.1-34.1c-2.9-2.9-7.6-2.9-10.4,0c-2.9,2.9-2.9,7.6,0,10.4
			l39.3,39.3c1.4,1.4,3.3,2.2,5.2,2.2s3.8-0.7,5.2-2.2l78.7-78.7C425.8,239.8,425.8,235.1,422.9,232.2z"/>
	</g>
</g>
<g>
	<g>
		<path class="st0" d="M150.2,269.4C150.1,269.4,150.1,269.4,150.2,269.4c-4.1,0-7.4,3.3-7.4,7.4c0,0,0,0,0,0s0,0,0,0
			c0,4.1,3.3,7.4,7.4,7.4c0,0,0,0,0,0c4.1,0,7.4-3.3,7.4-7.4c0,0,0,0,0,0s0,0,0,0C157.5,272.7,154.2,269.4,150.2,269.4z"/>
	</g>
</g>
<g>
	<g>
		<path class="st0" d="M183,157.4c-8.9-8.9-20.6-13.9-32.9-13.9c-25.8,0-46.7,21-46.7,46.7c0,4.1,3.3,7.4,7.4,7.4
			c4.1,0,7.4-3.3,7.4-7.4c0-17.6,14.3-32,32-32c8.3,0,16.3,3.4,22.4,9.5s9.5,14.1,9.5,22.4c0,14-9.4,26.6-22.8,30.6
			c-9.9,3-16.6,11.9-16.6,22.1v2.4c0,4.1,3.3,7.4,7.4,7.4c4.1,0,7.4-3.3,7.4-7.4V243c0-3.7,2.4-6.9,6.1-8
			c19.6-5.9,33.3-24.3,33.3-44.8C196.9,178,191.9,166.3,183,157.4z"/>
	</g>
</g>
</svg>
