<?xml version="1.0" encoding="iso-8859-1"?>
<!-- Generator: Adobe Illustrator 19.0.0, SVG Export Plug-In . SVG Version: 6.00 Build 0)  -->
<svg version="1.1" id="Capa_1" xmlns="http://www.w3.org/2000/svg" xmlns:xlink="http://www.w3.org/1999/xlink" x="0px" y="0px"
	 viewBox="0 0 512 512" style="enable-background:new 0 0 512 512;" xml:space="preserve">
<g>
	<g>
		<path d="M422.882,246.44c-0.005-0.099-0.003-0.196-0.012-0.296l-0.007-0.075c0-0.007-0.001-0.014-0.002-0.021l-10.004-110.049
			c-0.001-0.011-0.004-0.022-0.005-0.033c-0.017-0.178-0.046-0.353-0.074-0.528c-0.013-0.074-0.02-0.149-0.034-0.222
			c-0.036-0.182-0.084-0.358-0.133-0.536c-0.017-0.063-0.03-0.128-0.049-0.191c-0.056-0.182-0.122-0.359-0.191-0.537
			c-0.021-0.052-0.036-0.106-0.058-0.158c-0.078-0.189-0.168-0.372-0.262-0.552c-0.018-0.035-0.032-0.073-0.051-0.107
			c-1.001-1.866-2.772-3.255-4.885-3.756c-0.061-0.015-0.121-0.034-0.183-0.047c-0.132-0.028-0.267-0.045-0.401-0.065
			c-0.116-0.018-0.232-0.04-0.349-0.053c-0.108-0.011-0.217-0.013-0.325-0.02c-0.146-0.009-0.29-0.021-0.438-0.022
			c-0.014,0-0.027-0.002-0.04-0.002h-32.547v-12.518c0-20.705-16.844-37.548-37.548-37.548c-20.705,0-37.548,16.844-37.548,37.548
			v12.518h-32.543c-0.01,0-0.018,0.001-0.028,0.001c-0.204,0.001-0.406,0.014-0.608,0.031c-0.048,0.004-0.098,0.003-0.145,0.008
			c-0.203,0.021-0.404,0.055-0.603,0.092c-0.047,0.009-0.096,0.014-0.143,0.023c-0.168,0.035-0.332,0.082-0.497,0.128
			c-0.076,0.021-0.154,0.037-0.228,0.061c-0.115,0.036-0.226,0.082-0.338,0.123c-0.12,0.044-0.242,0.085-0.359,0.134
			c-0.054,0.023-0.105,0.052-0.158,0.077c-1.277,0.582-2.365,1.507-3.138,2.663c-0.013,0.019-0.023,0.039-0.035,0.057
			c-0.12,0.183-0.233,0.37-0.339,0.564c-0.02,0.037-0.035,0.076-0.054,0.113c-0.093,0.179-0.182,0.36-0.26,0.548
			c-0.02,0.047-0.034,0.098-0.053,0.145c-0.071,0.181-0.14,0.363-0.197,0.551c-0.016,0.055-0.027,0.112-0.043,0.167
			c-0.051,0.185-0.101,0.37-0.138,0.56c-0.014,0.068-0.021,0.139-0.032,0.207c-0.029,0.179-0.059,0.357-0.076,0.541
			c-0.001,0.012-0.004,0.022-0.005,0.033l-10.004,110.049c-0.001,0.007-0.001,0.014-0.002,0.021l-0.007,0.075
			c-0.009,0.1-0.007,0.197-0.012,0.296c-0.007,0.128-0.02,0.254-0.02,0.383c-0.006,0.015-0.004,0.029-0.004,0.043
			c0.001,0.147,0.013,0.292,0.023,0.438c0.007,0.107,0.008,0.214,0.02,0.32c0.015,0.142,0.041,0.279,0.063,0.42
			c0.018,0.107,0.03,0.217,0.053,0.324c0.024,0.118,0.06,0.232,0.09,0.349c0.032,0.124,0.061,0.249,0.099,0.371
			c0.028,0.09,0.065,0.177,0.098,0.266c0.051,0.142,0.099,0.285,0.158,0.423c0.027,0.066,0.063,0.128,0.093,0.193
			c0.072,0.156,0.144,0.312,0.226,0.462c0.027,0.05,0.061,0.096,0.089,0.146c0.092,0.159,0.185,0.317,0.288,0.469
			c0.037,0.056,0.081,0.107,0.121,0.162c0.1,0.139,0.2,0.278,0.31,0.411c0.058,0.07,0.122,0.134,0.183,0.201
			c0.099,0.11,0.195,0.222,0.3,0.326c0.085,0.085,0.178,0.162,0.267,0.242c0.088,0.08,0.173,0.163,0.264,0.238
			c0.105,0.086,0.217,0.163,0.326,0.244c0.085,0.062,0.166,0.128,0.253,0.187c0.109,0.074,0.227,0.139,0.341,0.207
			c0.094,0.056,0.185,0.117,0.281,0.169c0.105,0.057,0.216,0.104,0.324,0.156c0.112,0.054,0.223,0.111,0.338,0.16
			c0.095,0.039,0.193,0.07,0.29,0.105c0.136,0.051,0.27,0.104,0.409,0.146c0.085,0.025,0.173,0.044,0.26,0.066
			c0.155,0.042,0.309,0.084,0.47,0.116c0.088,0.017,0.179,0.027,0.268,0.041c0.159,0.026,0.318,0.053,0.482,0.068
			c0.013,0.002,0.025,0.004,0.038,0.005c0.23,0.021,0.461,0.031,0.689,0.031c0.004,0,0.007-0.001,0.01-0.001H415.37
			c0.003,0,0.006,0.001,0.01,0.001c0.228,0,0.458-0.01,0.689-0.031c0.013-0.001,0.025-0.004,0.038-0.005
			c0.163-0.016,0.322-0.042,0.482-0.068c0.09-0.014,0.18-0.024,0.268-0.041c0.159-0.032,0.314-0.074,0.47-0.116
			c0.087-0.023,0.175-0.041,0.26-0.066c0.14-0.043,0.274-0.096,0.411-0.146c0.097-0.036,0.194-0.066,0.289-0.105
			c0.115-0.049,0.225-0.106,0.338-0.16c0.108-0.052,0.219-0.1,0.324-0.156c0.096-0.052,0.187-0.111,0.279-0.167
			c0.115-0.069,0.232-0.134,0.343-0.208c0.087-0.059,0.169-0.124,0.253-0.187c0.109-0.081,0.221-0.158,0.326-0.244
			c0.092-0.075,0.176-0.158,0.264-0.238c0.09-0.08,0.182-0.157,0.267-0.242c0.104-0.104,0.201-0.216,0.3-0.326
			c0.061-0.067,0.125-0.131,0.183-0.201c0.109-0.132,0.21-0.271,0.31-0.411c0.04-0.055,0.084-0.106,0.121-0.162
			c0.104-0.151,0.196-0.31,0.288-0.469c0.028-0.049,0.061-0.096,0.089-0.146c0.083-0.151,0.155-0.309,0.229-0.467
			c0.029-0.064,0.063-0.124,0.09-0.188c0.059-0.137,0.107-0.28,0.158-0.422c0.032-0.09,0.069-0.177,0.098-0.268
			c0.038-0.12,0.066-0.245,0.098-0.367c0.031-0.117,0.065-0.233,0.091-0.352c0.022-0.106,0.035-0.216,0.053-0.324
			c0.022-0.14,0.049-0.277,0.064-0.42c0.012-0.105,0.013-0.213,0.02-0.32c0.01-0.145,0.021-0.29,0.022-0.438
			c0-0.014,0.002-0.028,0.002-0.043C422.902,246.694,422.889,246.568,422.882,246.44z M312.747,116.649
			c0-12.423,10.107-22.529,22.529-22.529c12.422,0,22.529,10.106,22.529,22.529v12.518h-45.058V116.649z M263.394,239.313
			l8.648-95.126h25.685v2.504c0,4.148,3.362,7.51,7.51,7.51c4.148,0,7.51-3.362,7.51-7.51v-2.504h45.058v2.504
			c0,4.147,3.361,7.51,7.51,7.51s7.51-3.362,7.51-7.51v-2.504h25.689l8.648,95.126H263.394z"/>
	</g>
</g>
<g>
	<g>
		<path d="M508.716,143.274c-2.192-11.184-5.486-22.208-9.803-32.762c-4.386-10.724-9.863-21.066-16.281-30.74
			c-6.568-9.913-14.198-19.235-22.689-27.716c-12.716-12.716-27.175-23.37-42.985-31.661c-12.837-6.729-26.534-11.885-40.712-15.32
			C362.338,1.712,347.979,0,333.591,0c-16.792,0-33.493,2.413-49.625,7.159c-16.391,4.826-31.991,12.005-46.35,21.357
			c-1.682,1.091-2.834,2.774-3.254,4.736c-0.411,1.963-0.04,3.965,1.051,5.647c1.393,2.143,3.755,3.414,6.309,3.414
			c1.451,0,2.863-0.421,4.085-1.212c0.01,0,0.01-0.01,0.01-0.01c13.137-8.541,27.405-15.109,42.394-19.525
			c14.748-4.346,30.018-6.548,45.378-6.548c13.176,0,26.313,1.562,39.05,4.636c12.956,3.134,25.472,7.83,37.197,13.968
			c0.05,0.03,0.09,0.05,0.141,0.08h0.01c14.469,7.59,27.696,17.342,39.341,28.977c15.49,15.49,27.495,33.503,35.686,53.519
			c3.945,9.652,6.959,19.725,8.962,29.958c1.993,10.153,3.004,20.546,3.004,30.89c-0.01,10.493-1.001,21.017-2.964,31.28
			c-1.983,10.383-4.976,20.585-8.891,30.329c-8.181,20.326-20.216,38.54-35.806,54.12c-15.541,15.55-33.663,27.575-53.859,35.756
			c-9.703,3.935-19.856,6.939-30.18,8.932c-10.213,1.973-20.676,2.974-31.109,2.974c-10.404,0-20.857-1.001-31.051-2.984
			c-10.303-1.993-20.436-5.006-30.119-8.932c-13.976-5.679-26.957-13.201-38.783-22.455c-0.388-0.385-0.81-0.717-1.254-1
			c-4.775-3.814-9.365-7.902-13.744-12.281c-15.54-15.55-27.564-33.653-35.745-53.829c-3.936-9.693-6.94-19.836-8.932-30.149
			c-1.983-10.203-2.984-20.657-2.984-31.08s1.001-20.877,2.984-31.08c1.993-10.313,4.996-20.456,8.932-30.149
			c8.18-20.176,20.206-38.279,35.745-53.829c1.322-1.322,2.673-2.623,4.005-3.875c3.024-2.824,3.185-7.59,0.351-10.614
			c-1.412-1.512-3.414-2.373-5.478-2.373c-1.911,0-3.735,0.721-5.137,2.023c-1.472,1.382-2.943,2.794-4.365,4.225
			c-16.962,16.952-30.1,36.737-39.04,58.796c-4.295,10.594-7.58,21.678-9.763,32.942c-2.163,11.154-3.254,22.569-3.254,33.934
			s1.091,22.789,3.254,33.934c2.183,11.264,5.467,22.349,9.763,32.942c5.475,13.506,12.531,26.157,21.067,37.831l-26.277,26.277
			l-1.77-1.77c-2.934-2.933-7.688-2.933-10.621,0L10.997,447.903c-7.091,7.092-10.996,16.52-10.996,26.55
			c0.001,10.029,3.906,19.458,10.998,26.548C18.09,508.094,27.519,512,37.549,512c10.03,0,19.459-3.906,26.551-10.998
			L205.06,360.043c2.933-2.933,2.933-7.688,0-10.62l-1.771-1.771l26.276-26.277c11.658,8.527,24.288,15.577,37.771,21.056
			c10.583,4.296,21.658,7.58,32.901,9.773c11.144,2.163,22.55,3.254,33.904,3.254h0.06c11.375,0,22.8-1.091,33.954-3.254
			c11.264-2.173,22.359-5.457,32.962-9.763c22.068-8.941,41.865-22.078,58.826-39.04c17.012-17.012,30.169-36.907,39.111-59.136
			c4.284-10.644,7.55-21.788,9.722-33.123c2.143-11.194,3.224-22.659,3.224-34.094C512,165.743,510.899,154.378,508.716,143.274z
			 M53.481,490.381c-4.255,4.255-9.913,6.599-15.93,6.599c-6.017,0-11.675-2.344-15.93-6.601c-4.255-4.254-6.599-9.912-6.599-15.928
			c0-6.018,2.343-11.674,6.599-15.929L157.27,322.871l1.75,1.75c0.007,0.007,0.012,0.014,0.019,0.02
			c0.007,0.007,0.014,0.012,0.021,0.019l30.07,30.071L53.481,490.381z M192.669,337.03l-17.699-17.698l25.09-25.089
			c2.732,3.135,5.573,6.193,8.54,9.158c2.966,2.967,6.023,5.81,9.158,8.541L192.669,337.03z"/>
	</g>
</g>
<g>
	<g>
		<path d="M334.273,30.039c-81.437,0-147.69,66.253-147.69,147.69c0,81.436,66.253,147.69,147.69,147.69h0.002
			c81.432,0,147.686-66.253,147.69-147.69C481.96,96.293,415.706,30.039,334.273,30.039z M334.274,310.399l-0.002,7.51v-7.51
			c-73.155-0.001-132.67-59.516-132.67-132.672c0-73.154,59.517-132.669,132.671-132.669c73.152,0,132.668,59.516,132.672,132.67
			C466.941,250.883,407.426,310.399,334.274,310.399z"/>
	</g>
</g>
<g>
</g>
<g>
</g>
<g>
</g>
<g>
</g>
<g>
</g>
<g>
</g>
<g>
</g>
<g>
</g>
<g>
</g>
<g>
</g>
<g>
</g>
<g>
</g>
<g>
</g>
<g>
</g>
<g>
</g>
</svg>
