<?xml version="1.0" encoding="utf-8"?>
<!-- Generator: Adobe Illustrator 22.1.0, SVG Export Plug-In . SVG Version: 6.00 Build 0)  -->
<svg version="1.1" id="Capa_1" xmlns="http://www.w3.org/2000/svg" xmlns:xlink="http://www.w3.org/1999/xlink" x="0px" y="0px"
	 viewBox="0 0 490.3 490.3" style="enable-background:new 0 0 490.3 490.3;" xml:space="preserve">
<g>
	<path class="st0" d="M325.6,418.3c-1.3-0.6-2.7-1-3.8-1.9c-3.9-3.4-3.5-9.3,0.9-12.2c6.7-4.5,13.1-9.3,19.1-14.7
		c15.9-14.1,28.8-30.6,38.6-49.5c3.3-6.4,6.2-12.9,8.6-19.6c0.1-0.3,0.2-0.5,0.3-0.9c-1.9-0.8-3.7-1.6-5.5-2.4
		c-22-11-35.7-28.6-41.2-52.5c-2.8-12.2-2.1-24.3,1.3-36.3c1.3-4.6,5.4-6.9,10.1-5.5c19.8,6.1,34.6,18.2,44.7,36.3
		c0.2,0.3,0.4,0.7,0.6,1.1c1.4-6.6-3.6-40.5-7-47.5c-2.9,0.5-5.7,1.1-8.6,1.5c-13,1.8-25.6,0.3-37.7-4.6
		c-17.8-7.1-31.1-19.2-39.8-36.3c-1.4-2.8-2.6-5.8-3.7-8.7c-1.5-4.1,0.5-8.3,4.7-9.8c7.1-2.6,14.5-4,22.1-4.3
		c11.9-0.5,23.2,1.8,34.1,6.6c0.2,0.1,0.5,0.2,0.8,0.2c-0.6-0.7-1.1-1.5-1.7-2.2c-0.6-0.8-1.2-1.5-1.8-2.2
		c-3.7-4.1-7.4-8.2-11.2-12.3c-2.3-2.5-3-5.8-1.7-8.7c1.3-2.9,4.1-4.7,7.3-4.6c2,0.1,3.8,0.8,5.2,2.3c3.3,3.5,6.5,7,9.8,10.6
		c0.3,0.4,0.7,0.8,1.1,1.3c0.2-2.1,0.3-4.1,0.6-6.1c2-16.2,8.5-30.3,19.5-42.4c3.3-3.6,7-6.9,11-9.7c1.2-0.8,2.5-1.3,3.8-1.9
		c0.8,0,1.6,0,2.4,0c2.3,0.6,4.1,1.8,5.5,3.8c12.7,18.7,16.5,39.1,11.4,61.1c-3.8,16.2-12.3,29.6-25.1,40.3
		c-0.7,0.6-0.8,0.9-0.4,1.7c1.2,2.9,2.4,5.9,3.5,8.8c0.9,2.5,1.7,5,2.6,7.6c0.2-0.5,0.4-0.8,0.5-1.1c4.1-8.5,9.4-16.1,16.2-22.6
		c10.1-9.6,21.9-15.9,35.5-19c4.4-1,8.4,1.5,9.4,5.9c2.2,9.8,2.6,19.7,0.6,29.5c-5.3,26.4-20.2,45.2-44.8,56.3
		c-2.8,1.3-5.9,2.2-8.7,3.2c-0.3,7.9-0.7,15.9-1,23.8c0.3-0.2,0.7-0.5,1.1-0.9c6.2-5.3,13.1-9.5,20.7-12.5
		c12.9-5.2,26.1-6.7,39.8-4.5c2.9,0.5,4.9,2.3,5.9,5.1c0.1,0.4,0.3,0.7,0.4,1.1c0,0.8,0,1.6,0,2.4c-0.1,0.2-0.2,0.3-0.2,0.5
		c-3.2,19-12.1,34.7-27.1,46.8c-15.8,12.7-33.9,18.2-54.1,16.6c-0.7-0.1-1,0.1-1.3,0.8c-3.2,6.4-6.4,12.8-9.7,19.1
		c-0.1,0.3-0.3,0.5-0.5,1c0.5-0.1,0.8-0.2,1.1-0.3c9.9-2.9,20-3.9,30.2-2.7c14.7,1.6,27.8,7.2,39.3,16.5c3.5,2.8,4,7.5,1.1,10.9
		c-2.2,2.6-4.5,5.2-7,7.5c-15.1,13.7-32.9,20.4-53.3,20.1c-12.8-0.2-24.8-3.7-35.9-10.1c-1.9-1.1-3.8-2.4-5.7-3.6
		c-0.2,0.2-0.4,0.3-0.5,0.4c-7.1,6.9-14.6,13.2-22.7,18.9c-2.4,1.7-4.7,3.7-7.7,4.5C327.2,418.3,326.4,418.3,325.6,418.3z
		 M385.9,198.1c-7.1-13.2-17.4-22.6-31.2-28.2c-11.1-4.5-22.6-5.5-34.5-3.1C332.3,190.5,359.7,203.7,385.9,198.1z M357,240.1
		c-2.1,15.5,1.2,29.7,9.8,42.6c6.3,9.4,14.7,16.4,25.1,21.1C396.1,277.9,381.7,250.9,357,240.1z M443.3,376.9
		c-9.7-6.4-25.1-10.9-41.8-8c-11.6,2.1-21.7,7.1-30.5,15.1C392.9,397.7,423.5,395.5,443.3,376.9z M393.5,172.1
		c20.6-18.8,24-50,12-71.5C385.9,118.5,381,149.3,393.5,172.1z M454,179.3c-28.3,10.4-41.4,39.2-38.8,61.2
		C441.4,231.3,456.8,203.7,454,179.3z M406.3,320.3c13.4,0,25.4-3.7,36-11.4c11.1-8,18.6-18.5,22.7-31.7c-15.1,0-28.3,4.7-39.7,14.2
		C416.1,299,409.8,308.6,406.3,320.3z"/>
	<path class="st0" d="M85,81.3c4.5,1.6,7.8,4.9,11.2,8.1c12.3,11.6,19.7,25.8,22.6,42.4c0.3,1.6,0.5,3.1,0.6,4.7
		c0.2,1.6,0.3,3.1,0.4,5c0.5-0.5,0.8-0.9,1.1-1.2c3.2-3.5,6.4-7.1,9.8-10.6c3.1-3.2,7.9-3.3,11-0.2c3,3,3,7.9-0.1,11
		c-4.9,5-9.5,10.2-13.8,15.7c-0.3,0.3-0.5,0.7-1,1.3c0.9-0.4,1.4-0.6,2-0.9c18.1-7.6,36.4-8.3,55-2c4.4,1.5,6.5,5.8,4.9,10.1
		c-10.4,26.9-29.9,43.2-58.2,48.9c-10.4,2.1-20.8,1.5-31.1-1c-0.2,0-0.4-0.1-0.6-0.1c-4.6,15.5-6.9,31.3-7.1,47.7
		c0.3-0.5,0.5-0.7,0.6-0.9c10-18.1,24.8-30.2,44.5-36.4c5.2-1.6,9.3,0.5,10.6,5.8c6.9,27.3,0.9,51.5-18,72.3
		c-7.4,8.2-16.5,14.1-26.8,18.2c-0.2,0.1-0.4,0.2-0.7,0.3c0.6,1.5,1.2,3.1,1.8,4.6c8.2,20.9,20.1,39.4,35.7,55.6
		c8.8,9.1,18.4,17.2,29,24.2c2.8,1.9,4.2,4.4,3.7,7.8c-0.5,3.4-2.6,5.6-6.1,6.4c-0.1,0-0.2,0.1-0.3,0.2c-0.8,0-1.6,0-2.4,0
		c-1.1-0.5-2.4-0.8-3.4-1.6c-5.6-4.1-11.3-8.2-16.7-12.5c-3.8-3-7.2-6.4-10.9-9.6c0,0-0.1,0-0.1,0c-0.2,0.1-0.3,0.2-0.5,0.3
		c-17.6,11.9-36.8,15.8-57.6,11.9c-17.7-3.4-32.2-12.3-43.7-26.1c-2.8-3.4-2.4-8.2,1.1-10.9C50,355,70.9,349.9,94.1,354.2
		c2.7,0.5,5.3,1.3,8,1.9c0-0.1,0-0.2-0.1-0.2c-3.8-6.5-7.2-13.2-10.2-20.1c-0.1-0.3-0.7-0.5-1.1-0.5c-2.2,0.1-4.3,0.3-6.5,0.3
		c-8.8,0-17.4-1.3-25.6-4.4c-24.8-9.5-40.9-27-47.9-52.8c-0.6-2.3-1-4.7-1.5-7c0-0.8,0-1.6,0-2.4c0.1-0.2,0.2-0.3,0.2-0.5
		c0.9-3.3,3-5.3,6.4-5.8c6.9-1.1,13.9-1.2,20.8-0.3c15,1.9,28.3,7.9,39.8,17.8c0.2,0.2,0.5,0.4,0.6,0.5c-0.3-7.9-0.6-15.8-1-23.8
		c0.1,0.1,0,0,0,0c-0.2-0.1-0.3-0.1-0.5-0.2c-21.4-6.7-37-20-46.7-40.2c-7.5-15.5-9.1-31.8-5.5-48.6c0.9-4.3,5-6.9,9.3-5.9
		c23.8,5.7,41,19.7,51.8,41.6c0.2,0.4,0.3,0.7,0.5,1c2.2-5.8,4.3-11.6,6.5-17.4c0,0,0-0.1-0.1-0.1c-0.2-0.2-0.5-0.4-0.7-0.6
		c-16.8-14.2-25.8-32.3-27.1-54.2c-1-16.6,3.4-31.9,12.5-45.8c1.6-2.5,3.4-4.5,6.4-5.2C83.4,81.3,84.2,81.3,85,81.3z M134.2,240.2
		c-24.9,10.6-39.2,38.2-34.9,63.7c11.4-5.2,20.4-13.2,26.9-23.9C133.5,267.7,136.2,254.5,134.2,240.2z M171,166.8
		c-14.2-2.8-27.5-0.9-40.2,5.8c-11.1,5.8-19.6,14.4-25.4,25.5C130.2,203.6,158.4,191.5,171,166.8z M37.1,179.2
		c-1,14,2.3,26.8,10,38.4c7.2,10.7,16.8,18.3,28.9,22.9C78.7,215,62.6,188.2,37.1,179.2z M84.7,320.2c-0.3-6.9-10.3-22.1-19.7-29.6
		c-11.3-9.1-24.2-13.5-38.8-13.5c4.2,13.7,12.1,24.5,23.7,32.6C60.4,316.9,72,320.3,84.7,320.2z M120.1,384
		c-20.1-19.1-51.4-20.6-72.1-7.2C65.8,394.3,96.7,398.7,120.1,384z M97.7,172.1c13.5-25.3,5.8-55.9-12.1-71.5
		C73.2,123.6,78,153.9,97.7,172.1z"/>
	<path class="st0" d="M245.7,209c3.1,0.1,5.4,1.5,6.8,4.3c4.6,9.3,9.2,18.7,13.9,28.1c0.9,1.9,1.9,3.8,2.8,5.8
		c0.3,0.8,0.8,1.1,1.6,1.2c5.2,0.7,10.4,1.5,15.7,2.3c7.3,1.1,14.5,2.1,21.8,3.2c3,0.5,5.1,2.2,6,5.1c1,2.9,0.4,5.7-1.8,7.9
		c-4.5,4.5-9.1,8.9-13.7,13.4c-4.5,4.4-9.1,8.8-13.6,13.3c-0.3,0.3-0.5,0.9-0.4,1.3c2.1,12.4,4.2,24.9,6.4,37.3
		c0.5,3.1-0.4,5.7-2.9,7.6c-2.6,1.9-5.4,2.1-8.2,0.6c-6.9-3.6-13.7-7.2-20.6-10.8c-4.3-2.3-8.6-4.5-12.9-6.8c-0.6-0.3-1.1-0.3-1.7,0
		c-11.1,5.9-22.2,11.7-33.4,17.5c-2.8,1.5-5.7,1.4-8.2-0.5c-2.6-1.9-3.5-4.5-3-7.7c2.1-12.4,4.3-24.8,6.3-37.2
		c0.1-0.4-0.1-1.1-0.4-1.4c-8.9-8.7-17.7-17.4-26.7-25.9c-4.4-4.2-3.4-10.6,1.4-12.9c1.6-0.8,3.5-1,5.3-1.2
		c10.5-1.6,21.1-3.1,31.6-4.6c1-0.1,2.1-0.2,3.1-0.5c0.4-0.1,0.9-0.5,1.1-0.8c5.5-11.1,11-22.1,16.4-33.2
		C239.8,211,242.1,209.1,245.7,209z M217.9,319.4c0.5-0.3,0.8-0.4,1.1-0.6c7.4-3.9,14.8-7.7,22.2-11.7c3-1.6,5.8-1.6,8.8,0
		c7.4,4,14.8,7.8,22.2,11.7c0.3,0.2,0.7,0.3,1.1,0.5c0-0.4,0-0.6-0.1-0.9c-1.5-8.6-3-17.2-4.4-25.8c-0.5-2.7,0.3-5.1,2.2-7
		c5.4-5.2,10.7-10.5,16.1-15.7c1.1-1.1,2.2-2.2,3.3-3.3c-0.2-0.1-0.3-0.1-0.4-0.2c-8.3-1.2-16.6-2.5-24.9-3.6
		c-3.9-0.5-6.5-2.2-8.2-5.8c-3-6.4-6.2-12.6-9.3-19c-0.7-1.3-1.3-2.7-2.1-4.1c-0.3,0.5-0.5,0.9-0.7,1.2c-3.8,7.7-7.6,15.4-11.4,23.1
		c-1.2,2.5-3.2,3.9-5.9,4.3c-6.7,1-13.5,2-20.3,2.9c-2.2,0.3-4.3,0.6-6.5,1c1.1,1.2,2.1,2.3,3.1,3.3c5.4,5.3,10.9,10.6,16.3,15.9
		c1.8,1.7,2.5,3.9,2.1,6.4c-1.1,6.5-2.2,13.1-3.4,19.6C218.7,314.3,218.3,316.7,217.9,319.4z"/>
</g>
</svg>
