<?xml version="1.0" encoding="utf-8"?>
<!-- Generator: Adobe Illustrator 22.1.0, SVG Export Plug-In . SVG Version: 6.00 Build 0)  -->
<svg version="1.1" id="Capa_1" xmlns="http://www.w3.org/2000/svg" xmlns:xlink="http://www.w3.org/1999/xlink" x="0px" y="0px"
	 viewBox="0 0 490.3 490.3" style="enable-background:new 0 0 490.3 490.3;" xml:space="preserve">
<g>
	<g>
		<path class="st0" d="M77.1,275.4c-4.4,0-8,3.6-8,8v32c0,4.4,3.6,8,8,8s8-3.6,8-8v-32C85.1,279,81.5,275.4,77.1,275.4z"/>
	</g>
</g>
<g>
	<g>
		<path class="st0" d="M109.1,291.4c-4.4,0-8,3.6-8,8v32c0,4.4,3.6,8,8,8s8-3.6,8-8v-32C117.1,295,113.5,291.4,109.1,291.4z"/>
	</g>
</g>
<g>
	<g>
		<path class="st0" d="M400.9,334.3c-3.7-2.4-8.7-1.3-11,2.5c-2.3,3.6-1.4,8.3,2.1,10.8c22,14.8,27.8,44.6,13,66.6
			c-14.8,22-44.6,27.8-66.6,13c-22-14.8-27.8-44.6-13-66.6c8.9-13.2,23.8-21.2,39.8-21.2c4.4,0,8-3.6,8-8s-3.6-8-8-8
			c-35.3,0-64,28.7-64,64s28.7,64,64,64s64-28.7,64-64C429.1,366.1,418.5,346.2,400.9,334.3z"/>
	</g>
</g>
<g>
	<g>
		<path class="st0" d="M457.3,360.8c-7.8-26.9-26.8-49-52.2-60.6V123.4c0-2.8-1.5-5.4-3.9-6.9l-176-104c-2.5-1.5-5.6-1.5-8.1,0
			l-176,104c-0.2,0.1-0.3,0.2-0.4,0.4s-0.3,0.2-0.5,0.4c-0.7,0.5-1.3,1.2-1.8,2c0,0.1-0.1,0.1-0.1,0.1v0.1c-0.5,0.8-0.8,1.7-0.9,2.6
			c0,0.2-0.1,0.5-0.1,0.7c0,0.2-0.1,0.5-0.1,0.7v208c0,2.8,1.5,5.4,3.9,6.9l176,104c0.2,0.1,0.4,0.2,0.6,0.3
			c0.2,0.1,0.4,0.2,0.7,0.3c1.8,0.7,3.7,0.7,5.5,0c0.2-0.1,0.5-0.2,0.7-0.3c0.2-0.1,0.4-0.2,0.6-0.3l47.8-28.2
			c14.7,50.9,67.9,80.3,118.8,65.6C442.7,464.9,472,411.7,457.3,360.8z M221.1,28.7l41.6,24.6L201,89.7c-3.8,2.2-5.1,7.2-2.8,11
			s7.2,5.1,11,2.8l69.3-40.9L320,87.2l-160.3,94.7l-41.6-24.6l67-39.6c3.8-2.2,5.1-7.2,2.8-11s-7.2-5.1-11-2.8L102.4,148l-41.6-24.6
			L221.1,28.7z M151.8,195.7v53.4l-41.3-24.4v-53.4L151.8,195.7z M272.3,362.6c-2.1,8.1-3.2,16.4-3.2,24.7c0,3.3,0.2,6.7,0.5,10
			l-40.5,24v-26c0-4.4-3.6-8-8-8s-8,3.6-8,8v26l-160-94.5V137.4l41.3,24.4v67.4c0,2.8,1.5,5.5,3.9,6.9l57.3,33.9
			c1.2,0.7,2.6,1.1,4.1,1.1c4.4,0,8-3.6,8-8v-58l45.3,26.8v131.4c0,4.4,3.6,8,8,8s8-3.6,8-8V231.9l145-85.7c3.8-2.2,5.1-7.2,2.8-11
			s-7.2-5.1-11-2.8l-144.8,85.6l-45.6-27l160.3-94.7l53.3,31.5v166.6C338,281.1,285.7,311.6,272.3,362.6z M365.1,467.4
			c-44.2,0-80-35.8-80-80s35.8-80,80-80s80,35.8,80,80C445,431.5,409.3,467.3,365.1,467.4z"/>
	</g>
</g>
<g>
	<g>
		<path class="st0" d="M394.6,365.7c-3.1-3-8-3-11.1,0l-30.3,30.3l-6.3-6.3c-3.2-3.1-8.2-3-11.3,0.2c-3,3.1-3,8,0,11.1l12,12
			c3.1,3.1,8.2,3.1,11.3,0l36-36C397.8,373.9,397.7,368.8,394.6,365.7z"/>
	</g>
</g>
</svg>
