<?xml version="1.0" encoding="utf-8"?>
<!-- Generator: Adobe Illustrator 22.1.0, SVG Export Plug-In . SVG Version: 6.00 Build 0)  -->
<svg version="1.1" id="Capa_1" xmlns="http://www.w3.org/2000/svg" xmlns:xlink="http://www.w3.org/1999/xlink" x="0px" y="0px"
	 viewBox="0 0 490.3 490.3" style="enable-background:new 0 0 490.3 490.3;" xml:space="preserve">
<g>
	<path class="st0" d="M420.1,181.8c19.3,0,35,15.8,35,35v88.9c0,19.3-15.8,35-35,35h-344c-19.3,0-35-15.8-35-35v-88.9
		c0-19.3,15.8-35,35-35H420.1 M420.1,169.8h-344c-25.9,0-47,21.1-47,47v88.9c0,25.9,21.1,47,47,47h344c25.9,0,47-21.1,47-47v-88.9
		C467.1,190.8,446,169.8,420.1,169.8L420.1,169.8z"/>
</g>
<g>
	<path class="st0" d="M71.1,304l17.4-41.8l-15.7-39.5h10.4l12.8,32.5l12.8-32.5h10.4l-15.7,39.5L121,304h-10.4l-14.5-34.8L81.6,304
		H71.1z"/>
	<path class="st0" d="M124.5,304l17.4-41.8l-15.7-39.5h10.4l12.8,32.5l12.8-32.5h10.4L157,262.2l17.4,41.8H164l-14.5-34.8L135,304
		H124.5z"/>
	<path class="st0" d="M177.9,304l17.4-41.8l-15.7-39.5h10.4l12.8,32.5l12.8-32.5h10.4l-15.7,39.5l17.4,41.8h-10.4l-14.5-34.8
		L188.4,304H177.9z"/>
	<path class="st0" d="M230.7,273.3v-8.1h34.8v8.1H230.7z"/>
	<path class="st0" d="M268.4,304l17.4-41.8l-15.7-39.5h10.4l12.8,32.5l12.8-32.5h10.4l-15.7,39.5l17.4,41.8h-10.4l-14.5-34.8
		L278.9,304H268.4z"/>
	<path class="st0" d="M321.8,304l17.4-41.8l-15.7-39.5H334l12.8,32.5l12.8-32.5H370l-15.7,39.5l17.4,41.8h-10.4l-14.5-34.8
		L332.3,304H321.8z"/>
	<path class="st0" d="M375.2,304l17.4-41.8L377,222.8h10.4l12.8,32.5l12.8-32.5h10.4l-15.7,39.5l17.4,41.8h-10.4l-14.5-34.8
		L385.7,304H375.2z"/>
</g>
</svg>
