<?xml version="1.0" encoding="utf-8"?>
<!-- Generator: Adobe Illustrator 19.0.1, SVG Export Plug-In . SVG Version: 6.00 Build 0)  -->
<svg version="1.1" id="Шар_1" xmlns="http://www.w3.org/2000/svg" xmlns:xlink="http://www.w3.org/1999/xlink" x="0px" y="0px"
	 viewBox="0 0 58 48" style="enable-background:new 0 0 58 48;" xml:space="preserve">
<style type="text/css">
	.st0{fill:#0D0F0F;}
</style>
<g>
	<path class="st0" d="M58,8h-4V4h-4V0H8v4H4v4H0v32h4v4h4v4h42v-4h4v-4h4V8z M2,38V10h2v28H2z M6,42v-2V8V6h2v36H6z M48,46H10v-2V4
		V2h38v2v40V46z M52,42h-2V6h2v2v32V42z M56,38h-2V10h2V38z"/>
	<circle class="st0" cx="17" cy="9" r="1"/>
	<circle class="st0" cx="14" cy="6" r="1"/>
	<circle class="st0" cx="20" cy="6" r="1"/>
	<circle class="st0" cx="14" cy="12" r="1"/>
	<circle class="st0" cx="20" cy="12" r="1"/>
	<circle class="st0" cx="23" cy="9" r="1"/>
	<circle class="st0" cx="29" cy="9" r="1"/>
	<circle class="st0" cx="26" cy="6" r="1"/>
	<circle class="st0" cx="32" cy="6" r="1"/>
	<circle class="st0" cx="26" cy="12" r="1"/>
	<circle class="st0" cx="32" cy="12" r="1"/>
	<circle class="st0" cx="35" cy="9" r="1"/>
	<circle class="st0" cx="41" cy="9" r="1"/>
	<circle class="st0" cx="38" cy="6" r="1"/>
	<circle class="st0" cx="44" cy="6" r="1"/>
	<circle class="st0" cx="38" cy="12" r="1"/>
	<circle class="st0" cx="44" cy="12" r="1"/>
	<circle class="st0" cx="17" cy="15" r="1"/>
	<circle class="st0" cx="17" cy="21" r="1"/>
	<circle class="st0" cx="14" cy="18" r="1"/>
	<circle class="st0" cx="20" cy="18" r="1"/>
	<circle class="st0" cx="14" cy="24" r="1"/>
	<circle class="st0" cx="20" cy="24" r="1"/>
	<circle class="st0" cx="23" cy="15" r="1"/>
	<circle class="st0" cx="29" cy="15" r="1"/>
	<circle class="st0" cx="23" cy="21" r="1"/>
	<circle class="st0" cx="29" cy="21" r="1"/>
	<circle class="st0" cx="26" cy="18" r="1"/>
	<circle class="st0" cx="32" cy="18" r="1"/>
	<circle class="st0" cx="26" cy="24" r="1"/>
	<circle class="st0" cx="32" cy="24" r="1"/>
	<circle class="st0" cx="35" cy="15" r="1"/>
	<circle class="st0" cx="41" cy="15" r="1"/>
	<circle class="st0" cx="35" cy="21" r="1"/>
	<circle class="st0" cx="41" cy="21" r="1"/>
	<circle class="st0" cx="38" cy="18" r="1"/>
	<circle class="st0" cx="44" cy="18" r="1"/>
	<circle class="st0" cx="38" cy="24" r="1"/>
	<circle class="st0" cx="44" cy="24" r="1"/>
	<circle class="st0" cx="17" cy="27" r="1"/>
	<circle class="st0" cx="17" cy="33" r="1"/>
	<circle class="st0" cx="14" cy="30" r="1"/>
	<circle class="st0" cx="20" cy="30" r="1"/>
	<circle class="st0" cx="14" cy="36" r="1"/>
	<circle class="st0" cx="20" cy="36" r="1"/>
	<circle class="st0" cx="23" cy="27" r="1"/>
	<circle class="st0" cx="29" cy="27" r="1"/>
	<circle class="st0" cx="23" cy="33" r="1"/>
	<circle class="st0" cx="29" cy="33" r="1"/>
	<circle class="st0" cx="26" cy="30" r="1"/>
	<circle class="st0" cx="32" cy="30" r="1"/>
	<circle class="st0" cx="26" cy="36" r="1"/>
	<circle class="st0" cx="32" cy="36" r="1"/>
	<circle class="st0" cx="35" cy="27" r="1"/>
	<circle class="st0" cx="41" cy="27" r="1"/>
	<circle class="st0" cx="35" cy="33" r="1"/>
	<circle class="st0" cx="41" cy="33" r="1"/>
	<circle class="st0" cx="38" cy="30" r="1"/>
	<circle class="st0" cx="44" cy="30" r="1"/>
	<circle class="st0" cx="38" cy="36" r="1"/>
	<circle class="st0" cx="44" cy="36" r="1"/>
	<circle class="st0" cx="17" cy="39" r="1"/>
	<circle class="st0" cx="14" cy="42" r="1"/>
	<circle class="st0" cx="20" cy="42" r="1"/>
	<circle class="st0" cx="23" cy="39" r="1"/>
	<circle class="st0" cx="29" cy="39" r="1"/>
	<circle class="st0" cx="26" cy="42" r="1"/>
	<circle class="st0" cx="32" cy="42" r="1"/>
	<circle class="st0" cx="35" cy="39" r="1"/>
	<circle class="st0" cx="41" cy="39" r="1"/>
	<circle class="st0" cx="38" cy="42" r="1"/>
	<circle class="st0" cx="44" cy="42" r="1"/>
</g>
</svg>
