<?xml version="1.0" encoding="utf-8"?>
<!-- Generator: Adobe Illustrator 19.0.1, SVG Export Plug-In . SVG Version: 6.00 Build 0)  -->
<svg version="1.1" id="Шар_1" xmlns="http://www.w3.org/2000/svg" xmlns:xlink="http://www.w3.org/1999/xlink" x="0px" y="0px"
	 viewBox="0 0 384.1 511.9" style="enable-background:new 0 0 384.1 511.9;" xml:space="preserve">
<style type="text/css">
	.st0{fill:#0D0F0F;}
</style>
<g>
	<g>
		<path class="st0" d="M381,365.8L167.6,152.4c-3.1-3.1-7.6-3.9-11.6-2.3c-4,1.6-6.6,5.5-6.6,9.9v295.4c0,4.1,2.3,7.8,6,9.6
			c3.7,1.8,8,1.3,11.2-1.2l54.1-42.3l47.3,85.1c1.9,3.5,5.6,5.5,9.3,5.5c1.6,0,3.2-0.4,4.8-1.1l64-32c2.6-1.3,4.6-3.6,5.4-6.4
			c0.9-2.8,0.5-5.8-0.9-8.3L306.2,384h67.2c4.3,0,8.2-2.6,9.9-6.6C384.9,373.4,384,368.8,381,365.8z M288.1,362.7
			c-3.8,0-7.3,2-9.2,5.3c-1.9,3.2-2,7.3-0.1,10.6l47.9,86.3l-44.9,22.5l-48.4-87.1c-1.5-2.7-4.1-4.7-7.2-5.3
			c-0.7-0.1-1.4-0.2-2.1-0.2c-2.4,0-4.7,0.8-6.6,2.3l-46.8,36.6V185.7l176.9,176.9L288.1,362.7L288.1,362.7z"/>
	</g>
</g>
<g>
	<g>
		<path class="st0" d="M309.5,102.8c-15.3-39.9-45.2-71.5-84.2-88.9C144.8-22.1,49.9,14.2,14,94.8c-17.4,39-18.6,82.5-3.3,122.4
			c15.3,39.9,45.2,71.5,84.2,88.9c1.4,0.6,2.9,0.9,4.3,0.9c4.1,0,8-2.4,9.7-6.3c2.4-5.4,0-11.7-5.4-14.1
			C33.8,255.4,2.3,173.3,33.5,103.5C64.6,33.7,146.8,2.3,216.6,33.4c69.8,31.2,101.3,113.3,70.1,183.1c-2.4,5.4,0,11.7,5.4,14.1
			c5.4,2.4,11.7,0,14.1-5.4C323.6,186.2,324.8,142.7,309.5,102.8z"/>
	</g>
</g>
<g>
	<g>
		<path class="st0" d="M250.3,127.1c-8.8-24.1-26.5-43.3-49.7-54.1c-23.2-10.8-49.3-11.9-73.4-3.1c-24.1,8.8-43.3,26.5-54.1,49.7
			c-10.8,23.3-11.9,49.3-3.1,73.4c8.8,24.1,26.5,43.3,49.7,54.1c1.5,0.7,3,1,4.5,1c4,0,7.9-2.3,9.7-6.2c2.5-5.4,0.1-11.7-5.2-14.2
			c-18.1-8.4-31.8-23.4-38.7-42.1s-6-39,2.5-57.1c8.4-18.1,23.3-31.8,42.1-38.7c18.8-6.8,39-6,57.1,2.4
			c18.1,8.4,31.8,23.4,38.7,42.1s6,39-2.4,57.1c-2.5,5.4-0.1,11.7,5.2,14.2c5.4,2.5,11.7,0.1,14.2-5.2
			C257.9,177.2,259.1,151.1,250.3,127.1z"/>
	</g>
</g>
</svg>
