<?xml version="1.0" encoding="utf-8"?>
<!-- Generator: Adobe Illustrator 19.0.1, SVG Export Plug-In . SVG Version: 6.00 Build 0)  -->
<svg version="1.1" id="Layer_1" xmlns="http://www.w3.org/2000/svg" xmlns:xlink="http://www.w3.org/1999/xlink" x="0px" y="0px"
	 viewBox="63 -0.1 512 512" style="enable-background:new 63 -0.1 512 512;" xml:space="preserve">
<g>
	<g>
		<path d="M568.9,6c-8.1-8.1-21.2-8.1-29.2,0L69.1,476.6c-8.1,8.1-8.1,21.2,0,29.2c4,4,9.3,6.1,14.6,6.1s10.6-2,14.6-6.1L568.9,35.2
			C577,27.1,577,14,568.9,6z"/>
	</g>
</g>
<g>
	<g>
		<path d="M568.9,476.6L98.3,6c-8.1-8.1-21.2-8.1-29.2,0C61,14,61,27.1,69.1,35.2l470.6,470.6c4,4,9.3,6.1,14.6,6.1
			c5.3,0,10.6-2,14.6-6.1C577,497.8,577,484.7,568.9,476.6z"/>
	</g>
</g>
</svg>
