<?xml version="1.0" encoding="utf-8"?>
<!-- Generator: Adobe Illustrator 19.0.1, SVG Export Plug-In . SVG Version: 6.00 Build 0)  -->
<svg version="1.1" id="Capa_1" xmlns="http://www.w3.org/2000/svg" xmlns:xlink="http://www.w3.org/1999/xlink" x="0px" y="0px"
	 viewBox="-15 -19.7 480 480" style="enable-background:new -15 -19.7 480 480;" xml:space="preserve">
<g>
	<g>
		<path d="M349-19.7H29c-22.1,0-40,17.9-40,40v256c0,18.2,12.3,34.2,30,38.7l4-15.5c-10.6-2.7-18-12.3-18-23.2v-256
			C5,7,15.7-3.7,29-3.7h320c13.3,0,24,10.7,24,24v8h16v-8C389-1.8,371.1-19.7,349-19.7z"/>
	</g>
</g>
<g>
	<g>
		<rect x="21" y="12.3" width="16" height="16"/>
	</g>
</g>
<g>
	<g>
		<rect x="53" y="12.3" width="16" height="16"/>
	</g>
</g>
<g>
	<g>
		<rect x="85" y="12.3" width="16" height="16"/>
	</g>
</g>
<g>
	<g>
		<path d="M458.7,422.6l-75.9-75.9c4-7.1,7.2-14.6,9.5-22.5H405v-16h-9.3c3-19.4,0.7-39.2-6.7-57.3v-78.7h-16v50.9
			c-4.8-6.1-10.1-11.6-16-16.6v-66.3h-16v55.2c-5.1-3-10.5-5.5-16-7.6v-79.5h-16v74.7c-5.3-1.1-10.6-1.9-16-2.2v-56.4h-16v56.4
			c-5.4,0.4-10.7,1.1-16,2.2v-26.7h-16v31.5c-5.5,2.1-10.9,4.7-16,7.6v-47.2h-16v58.3c-5.9,5-11.2,10.5-16,16.6v-58.9h-16V251
			c-7.4,18.1-9.7,38-6.7,57.3H69v16h108.7c17.5,59.2,79.7,92.9,138.9,75.4c11.7-3.5,22.7-8.8,32.6-15.8l74.1,74.1
			c3.1,3.1,8.2,3.1,11.3,0l24-24C461.8,430.8,461.8,425.8,458.7,422.6z M285,388.3c-53-0.1-95.9-43-96-96c0-53,43-96,96-96
			s96,43,96,96S338,388.3,285,388.3z M429,441l-67.3-67.3c4.4-4.1,8.4-8.6,12-13.3l67.9,67.9L429,441z"/>
	</g>
</g>
<g>
	<g>
		<path d="M285,212.3c-44.2,0-80,35.8-80,80s35.8,80,80,80s80-35.8,80-80C365,248.1,329.2,212.3,285,212.3z M285,356.3
			c-22.8,0-43.9-12.2-55.3-32h110.7C328.9,344.1,307.8,356.3,285,356.3z M223.1,308.3c-6.4-24.4,2.2-50.2,21.9-65.9v49.9h16V233
			c5.1-2.1,10.5-3.5,16-4.2v63.4h16v-63.4c5.5,0.7,10.9,2.1,16,4.2v59.3h16v-49.9c19.7,15.7,28.3,41.5,21.9,65.9H223.1z"/>
	</g>
</g>
<g>
	<g>
		<path d="M397,44.3H77c-22.1,0-40,17.9-40,40v256c0,22.1,17.9,40,40,40h104v-16H77c-13.3,0-24-10.7-24-24v-256
			c0-13.3,10.7-24,24-24h320c13.3,0,24,10.7,24,24v256c0,5.8-2.1,11.5-6,15.9l12,10.6c6.4-7.3,10-16.7,10-26.5v-256
			C437,62.2,419.1,44.3,397,44.3z"/>
	</g>
</g>
<g>
	<g>
		<rect x="69" y="76.3" width="16" height="16"/>
	</g>
</g>
<g>
	<g>
		<rect x="101" y="76.3" width="16" height="16"/>
	</g>
</g>
<g>
	<g>
		<rect x="133" y="76.3" width="16" height="16"/>
	</g>
</g>
<g>
	<g>
		<rect x="85" y="244.3" width="16" height="48"/>
	</g>
</g>
<g>
	<g>
		<rect x="117" y="196.3" width="16" height="96"/>
	</g>
</g>
<g>
	<g>
		<rect x="149" y="220.3" width="16" height="72"/>
	</g>
</g>
</svg>
