<?xml version="1.0" encoding="utf-8"?>
<!-- Generator: Adobe Illustrator 19.0.1, SVG Export Plug-In . SVG Version: 6.00 Build 0)  -->
<svg version="1.1" id="Шар_1" xmlns="http://www.w3.org/2000/svg" xmlns:xlink="http://www.w3.org/1999/xlink" x="0px" y="0px"
	 viewBox="0 0 512 398.2" style="enable-background:new 0 0 512 398.2;" xml:space="preserve">
<style type="text/css">
	.st0{fill:#0D0F0F;}
</style>
<g>
	<g>
		<path class="st0" d="M312.5,275.7H199.5c-8.5,0-15.4,6.9-15.4,15.4v34.6c0,8.5,6.9,15.4,15.4,15.4h112.9c8.5,0,15.4-6.9,15.4-15.4
			v-34.6C327.9,282.7,321,275.7,312.5,275.7z M308.1,321.4H203.9v-25.8h104.1V321.4z"/>
	</g>
</g>
<g>
	<g>
		<path class="st0" d="M507,190l0.2-0.1L432.7,42.8c-6-11.9-18-19.3-31.3-19.3h-14.1V9.8c0-5.5-4.4-9.9-9.9-9.9H134.7
			c-5.5,0-9.9,4.4-9.9,9.9v13.7h-14.1c-13.3,0-25.3,7.4-31.3,19.3L4.9,189.9L5,190c-3.2,5.2-5,11.4-5,18v155.4
			c0,19.2,15.6,34.8,34.8,34.8h442.5c19.2,0,34.8-15.6,34.8-34.8V207.9C512,201.4,510.2,195.2,507,190z M387.2,45.5h14.1
			c5,0,9.4,2.8,11.7,7.2L474,173.2h-41.4v-37.1c0-5.5-4.4-9.9-9.9-9.9h-12.3V73c0-5.5-4.4-9.9-9.9-9.9h-13.2V45.5z M412.7,146v27.1
			h-52.4c-9,0-17.2,5.3-20.9,13.5l-14.3,31.7c-0.1,0.3-0.4,0.5-0.8,0.5H187.6c-0.3,0-0.6-0.2-0.8-0.5l-14.3-31.7
			c-3.7-8.2-11.9-13.5-20.9-13.5H99.3V146L412.7,146L412.7,146z M144.6,19.7h222.8v43.3H144.6V19.7z M390.5,82.9v43.3h-269V82.9
			L390.5,82.9L390.5,82.9z M98.9,52.7c2.2-4.4,6.7-7.2,11.7-7.2h14.1v17.5h-13.2c-5.5,0-9.9,4.4-9.9,9.9v53.2H89.4
			c-5.5,0-9.9,4.4-9.9,9.9v37.1H38L98.9,52.7z M477.2,376H34.8c-7,0-12.7-5.7-12.7-12.7V207.9c0-7,5.7-12.7,12.7-12.7h116.9
			c0.3,0,0.6,0.2,0.8,0.5l14.3,31.7c3.7,8.2,11.9,13.5,20.9,13.5h136.8c9,0,17.2-5.3,20.9-13.5l14.3-31.7v0c0.1-0.3,0.4-0.5,0.8-0.5
			h116.9c7,0,12.7,5.7,12.7,12.7v155.4h0C490,370.4,484.3,376,477.2,376z"/>
	</g>
</g>
</svg>
