<?xml version="1.0" encoding="utf-8"?>
<!-- Generator: Adobe Illustrator 19.0.1, SVG Export Plug-In . SVG Version: 6.00 Build 0)  -->
<svg version="1.1" id="Capa_1" xmlns="http://www.w3.org/2000/svg" xmlns:xlink="http://www.w3.org/1999/xlink" x="0px" y="0px"
	 viewBox="-227 171.9 55.3 55.3" style="enable-background:new -227 171.9 55.3 55.3;" xml:space="preserve">
<path d="M-174.4,174.6c-3.5-3.5-9.2-3.5-12.7,0l-36.1,36.1c0,0,0,0,0,0.1c0,0,0,0-0.1,0.1c-0.1,0.1-0.1,0.2-0.1,0.2c0,0,0,0,0,0.1
	c0,0,0,0,0,0L-227,226c0,0.1,0,0.1,0,0.2c0,0,0,0,0,0c0,0.1,0,0.2,0.1,0.3c0,0,0,0,0,0.1c0,0.1,0.1,0.2,0.2,0.3
	c0.1,0.1,0.2,0.2,0.3,0.2c0.1,0.1,0.3,0.1,0.4,0.1c0.1,0,0.2,0,0.2,0l14.8-3.5c0,0,0.1,0,0.1,0c0,0,0.1,0,0.1,0
	c0.1,0,0.1-0.1,0.2-0.1c0,0,0,0,0.1-0.1c0,0,0,0,0,0l36.1-36.1C-170.9,183.8-170.9,178.1-174.4,174.6z M-175.8,176
	c2.5,2.5,2.7,6.4,0.7,9.1l-9.8-9.8C-182.2,173.3-178.3,173.5-175.8,176z M-180.7,190.8l-9.9-9.9l1.4-1.4l9.9,9.9L-180.7,190.8z
	 M-222,222.2c-0.4-0.4-1-0.4-1.4,0l-0.8,0.8l2.6-10.7l4.4-0.5l-0.6,5.1c0,0,0,0.1,0,0.1c0,0,0,0.1,0,0.1c0,0,0,0.1,0,0.1
	c0,0.1,0,0.1,0,0.2c0,0.1,0.1,0.1,0.1,0.2c0,0,0.1,0.1,0.1,0.1c0,0.1,0.1,0.1,0.2,0.1c0,0,0.1,0.1,0.1,0.1c0.1,0,0.1,0,0.2,0.1
	c0,0,0.1,0,0.1,0c0,0,0.1,0,0.1,0h0h0h0h0c0,0,0.1,0,0.1,0l5.1-0.6l-0.5,4.4l-10.7,2.6l0.8-0.8C-221.6,223.3-221.6,222.6-222,222.2z
	 M-209.5,216.8l22.4-22.4c0.4-0.4,0.4-1,0-1.4c-0.4-0.4-1-0.4-1.4,0l-22.4,22.4l-4.8,0.5l0.5-4.8l22.4-22.4c0.4-0.4,0.4-1,0-1.4
	c-0.4-0.4-1-0.4-1.4,0l-22.4,22.4l-3.2,0.4l27.7-27.7l9.9,9.9l-27.7,27.7L-209.5,216.8z M-177.9,188l-9.9-9.9l1.4-1.4l9.9,9.9
	L-177.9,188z"/>
</svg>
