<?xml version="1.0" encoding="utf-8"?>
<!-- Generator: Adobe Illustrator 19.0.1, SVG Export Plug-In . SVG Version: 6.00 Build 0)  -->
<svg version="1.1" id="Шар_1" xmlns="http://www.w3.org/2000/svg" xmlns:xlink="http://www.w3.org/1999/xlink" x="0px" y="0px"
	 viewBox="0 0 512 422.3" style="enable-background:new 0 0 512 422.3;" xml:space="preserve">
<style type="text/css">
	.st0{fill:#0D0F0F;}
</style>
<g>
	<g>
		<path class="st0" d="M489.4-0.1H22.6C10.1-0.1,0,10,0,22.5v377.1c0,12.5,10.1,22.6,22.6,22.6h466.8c12.5,0,22.6-10.1,22.6-22.6
			V22.5C512,10,501.9-0.1,489.4-0.1z M489.4,399.5l-466.8,0c0,0,0,0,0,0V22.5h466.8V399.5z"/>
	</g>
</g>
<g>
	<g>
		<path class="st0" d="M447,53.6H65c-6.2,0-11.3,5.1-11.3,11.3v249.8c0,6.2,5.1,11.3,11.3,11.3h382c6.2,0,11.3-5.1,11.3-11.3V64.9
			C458.3,58.6,453.2,53.6,447,53.6z M76.3,76.2h359.3v191.3l-71.2-71.2c-4.4-4.4-11.6-4.4-16,0L305,239.7l-99.6-99.6
			c-4.4-4.4-11.6-4.4-16,0L76.3,253.3L76.3,76.2L76.3,76.2z M76.3,303.4v-18.1l121.2-121.1l139.2,139.2H76.3z M435.7,303.4h-67v0
			L321,255.7l35.4-35.4l76.6,76.6c0.8,0.8,1.7,1.4,2.6,1.9L435.7,303.4L435.7,303.4z"/>
	</g>
</g>
<g>
	<g>
		<path class="st0" d="M304.3,97.6c-23.6,0-42.7,19.2-42.7,42.7s19.2,42.7,42.7,42.7s42.7-19.2,42.7-42.7S327.9,97.6,304.3,97.6z
			 M304.3,160.5c-11.1,0-20.1-9-20.1-20.1c0-11.1,9-20.1,20.1-20.1c11.1,0,20.1,9,20.1,20.1C324.5,151.5,315.4,160.5,304.3,160.5z"
			/>
	</g>
</g>
<g>
	<g>
		<path class="st0" d="M163.3,351.5H65c-6.2,0-11.3,5.1-11.3,11.3c0,6.2,5.1,11.3,11.3,11.3h98.3c6.2,0,11.3-5.1,11.3-11.3
			S169.6,351.5,163.3,351.5z"/>
	</g>
</g>
<g>
	<g>
		<path class="st0" d="M240.7,351.5h-25.8c-6.2,0-11.3,5.1-11.3,11.3s5.1,11.3,11.3,11.3h25.8c6.2,0,11.3-5.1,11.3-11.3
			S246.9,351.5,240.7,351.5z"/>
	</g>
</g>
</svg>
