<?xml version="1.0" encoding="utf-8"?>
<!-- Generator: Adobe Illustrator 19.0.1, SVG Export Plug-In . SVG Version: 6.00 Build 0)  -->
<svg version="1.1" id="Шар_1" xmlns="http://www.w3.org/2000/svg" xmlns:xlink="http://www.w3.org/1999/xlink" x="0px" y="0px"
	 viewBox="0 0 414.1 512" style="enable-background:new 0 0 414.1 512;" xml:space="preserve">
<style type="text/css">
	.st0{fill:#0D0F0F;}
</style>
<g>
	<g>
		<path class="st0" d="M387.3,39.8H255.8C251.2,17.1,231,0,207,0s-44.2,17.1-48.8,39.8H26.7c-14.8,0-26.8,12-26.8,26.8v284.6
			c0,14.8,12,26.8,26.8,26.8h124.9l-40.6,120.9c-1.8,5.2,1.1,10.9,6.3,12.7c1.1,0.4,2.1,0.5,3.2,0.5c4.2,0,8.1-2.6,9.5-6.8
			l42.7-127.2h68.5L284,505.2c1.4,4.2,5.3,6.8,9.5,6.8c1.1,0,2.1-0.2,3.2-0.5c5.2-1.8,8.1-7.4,6.3-12.7l-40.6-120.9h124.9
			c14.8,0,26.8-12,26.8-26.8V66.6C414.1,51.8,402,39.8,387.3,39.8z M207,20c12.9,0,24,8.3,28.1,19.8h-56.2C183,28.3,194.1,20,207,20
			z M394.1,351.2c0,3.7-3,6.8-6.8,6.8h-26.1V215.4c0-5.5-4.5-10-10-10s-10,4.5-10,10V358h-30.8V246c0-5.5-4.5-10-10-10
			s-10,4.5-10,10v112h-28.1v-79.3c0-5.5-4.5-10-10-10s-10,4.5-10,10v79.3H217V253.3c0-5.5-4.5-10-10-10c-5.5,0-10,4.5-10,10v104.7
			h-29v-55c0-5.5-4.5-10-10-10s-10,4.5-10,10v55h-23.2v-51c0-5.5-4.5-10-10-10s-10,4.5-10,10v51H78v-39.3c0-5.5-4.5-10-10-10
			s-10,4.5-10,10v39.3H26.7c-3.7,0-6.8-3-6.8-6.8V66.6c0-3.7,3-6.8,6.8-6.8h140.5h79.6h140.5c3.7,0,6.8,3,6.8,6.8L394.1,351.2
			L394.1,351.2z"/>
	</g>
</g>
<g>
	<g>
		<path class="st0" d="M361.1,106.9c0-0.1,0-0.3-0.1-0.4c0-0.2,0-0.4-0.1-0.6c0-0.2-0.1-0.3-0.1-0.5c0-0.2-0.1-0.3-0.1-0.5
			c0-0.2-0.1-0.3-0.2-0.5c-0.1-0.2-0.1-0.3-0.2-0.5c-0.1-0.1-0.1-0.3-0.2-0.4c-0.1-0.2-0.1-0.3-0.2-0.5c-0.1-0.1-0.1-0.2-0.2-0.4
			c-0.1-0.2-0.2-0.3-0.3-0.5c-0.1-0.1-0.2-0.3-0.3-0.4c-0.1-0.1-0.2-0.3-0.3-0.4c-0.2-0.2-0.4-0.4-0.6-0.6c0,0-0.1-0.1-0.1-0.1
			c0,0-0.1-0.1-0.1-0.1c-0.2-0.2-0.4-0.4-0.6-0.6c-0.1-0.1-0.3-0.2-0.4-0.3c-0.1-0.1-0.3-0.2-0.4-0.3c-0.1-0.1-0.3-0.2-0.4-0.3
			c-0.1-0.1-0.3-0.2-0.4-0.2c-0.1-0.1-0.3-0.1-0.4-0.2c-0.1-0.1-0.3-0.1-0.4-0.2c-0.1-0.1-0.3-0.1-0.4-0.2c-0.2-0.1-0.3-0.1-0.5-0.2
			c-0.1,0-0.3-0.1-0.4-0.1c-0.2,0-0.4-0.1-0.5-0.1c-0.2,0-0.3,0-0.5-0.1c-0.2,0-0.3-0.1-0.5-0.1c-0.3,0-0.5,0-0.8,0
			c-0.1,0-0.1,0-0.2,0H308c-5.5,0-10,4.5-10,10s4.5,10,10,10H327l-83,83l-21.8-21.8c-1.9-1.9-4.4-2.9-7.1-2.9s-5.2,1.1-7.1,2.9
			l-72.2,72.2l-21.5-21.5c-3.9-3.9-10.2-3.9-14.1,0l-36.5,36.5c-3.9,3.9-3.9,10.2,0,14.1c2,2,4.5,2.9,7.1,2.9s5.1-1,7.1-2.9
			l29.4-29.4l21.5,21.5c3.9,3.9,10.2,3.9,14.1,0l72.2-72.2l21.8,21.8c1.9,1.9,4.4,2.9,7.1,2.9s5.2-1.1,7.1-2.9l90.1-90.1v19.1
			c0,5.5,4.5,10,10,10s10-4.5,10-10v-43.2C361.2,107.5,361.1,107.2,361.1,106.9z"/>
	</g>
</g>
<g>
	<g>
		<circle class="st0" cx="70.8" cy="107.9" r="10"/>
	</g>
</g>
<g>
	<g>
		<circle class="st0" cx="70.8" cy="148.6" r="10"/>
	</g>
</g>
<g>
	<g>
		<circle class="st0" cx="70.8" cy="189.4" r="10"/>
	</g>
</g>
</svg>
