<?xml version="1.0" encoding="utf-8"?>
<!-- Generator: Adobe Illustrator 19.0.1, SVG Export Plug-In . SVG Version: 6.00 Build 0)  -->
<svg version="1.1" id="Шар_1" xmlns="http://www.w3.org/2000/svg" xmlns:xlink="http://www.w3.org/1999/xlink" x="0px" y="0px"
	 viewBox="0 0 512 242.6" style="enable-background:new 0 0 512 242.6;" xml:space="preserve">
<style type="text/css">
	.st0{fill:#0D0F0F;}
</style>
<g>
	<g>
		<path class="st0" d="M457.6,0c-30,0-54.4,24.4-54.4,54.4c0,10.9,3.3,21.1,8.8,29.6l-58.7,58.7c-8.5-5.6-18.7-8.8-29.6-8.8
			c-11.3,0-21.9,3.5-30.6,9.4L233.8,84c5.6-8.5,8.8-18.7,8.8-29.6c0-30-24.4-54.4-54.4-54.4s-54.4,24.4-54.4,54.4
			c0,10.9,3.3,21.1,8.8,29.6L84,142.7c-8.5-5.6-18.7-8.8-29.6-8.8c-30,0-54.4,24.4-54.4,54.4s24.4,54.4,54.4,54.4
			s54.4-24.4,54.4-54.4c0-10.9-3.3-21.1-8.8-29.6l58.7-58.7c8.5,5.6,18.7,8.8,29.6,8.8c10.9,0,21.1-3.3,29.6-8.8l59.7,59.7
			c-5.2,8.3-8.2,18.2-8.2,28.7c0,30,24.4,54.4,54.4,54.4s54.4-24.4,54.4-54.4c0-10.9-3.3-21.1-8.8-29.6L428,99.9
			c8.5,5.6,18.7,8.8,29.6,8.8c30,0,54.4-24.4,54.4-54.4C512,24.4,487.6,0,457.6,0z M54.4,220.2c-17.6,0-31.9-14.3-31.9-31.9
			c0-17.6,14.3-31.9,31.9-31.9c17.6,0,31.9,14.3,31.9,31.9C86.3,205.9,71.9,220.2,54.4,220.2z M188.3,86.3
			c-17.6,0-31.9-14.3-31.9-31.9c0-17.6,14.3-31.9,31.9-31.9s31.9,14.3,31.9,31.9S205.9,86.3,188.3,86.3z M323.7,220.2
			c-17.6,0-31.9-14.3-31.9-31.9s14.3-31.9,31.9-31.9c17.6,0,31.9,14.3,31.9,31.9C355.6,205.9,341.3,220.2,323.7,220.2z M457.6,86.3
			c-17.6,0-31.9-14.3-31.9-31.9c0-17.6,14.3-31.9,31.9-31.9c17.6,0,31.9,14.3,31.9,31.9S475.2,86.3,457.6,86.3z"/>
	</g>
</g>
<g>
	<g>
		<path class="st0" d="M176.8,138c-4.4-4.4-11.5-4.4-15.9,0L138,160.9c-4.4,4.4-4.4,11.5,0,15.9c2.2,2.2,5.1,3.3,7.9,3.3
			s5.8-1.1,7.9-3.3l22.9-22.9C181.2,149.5,181.2,142.4,176.8,138z"/>
	</g>
</g>
<g>
	<g>
		<path class="st0" d="M374,66.3c-4.4-4.4-11.5-4.4-15.9,0l-22.9,22.9c-4.4,4.4-4.4,11.5,0,15.9c2.2,2.2,5.1,3.3,7.9,3.3
			c2.9,0,5.8-1.1,7.9-3.3L374,82.1C378.3,77.8,378.3,70.6,374,66.3z"/>
	</g>
</g>
</svg>
