<?xml version="1.0" encoding="utf-8"?>
<!-- Generator: Adobe Illustrator 19.0.1, SVG Export Plug-In . SVG Version: 6.00 Build 0)  -->
<svg version="1.1" id="Шар_1" xmlns="http://www.w3.org/2000/svg" xmlns:xlink="http://www.w3.org/1999/xlink" x="0px" y="0px"
	 viewBox="0 0 266.7 350" style="enable-background:new 0 0 266.7 350;" xml:space="preserve">
<style type="text/css">
	.st0{fill:#0D0F0F;}
</style>
<g>
	<path class="st0" d="M133,171.2c38.9,0,70.5-38.3,70.5-85.6C203.5,38.3,193.1,0,133,0S62.5,38.3,62.5,85.6
		C62.5,132.9,94.1,171.2,133,171.2z"/>
	<path class="st0" d="M-0.1,301.9C-0.1,299-0.1,301-0.1,301.9L-0.1,301.9z"/>
	<path class="st0" d="M266.1,304.1C266.1,303.3,266.1,298.6,266.1,304.1L266.1,304.1z"/>
	<path class="st0" d="M265.9,298.4c-1.3-82.3-12.1-105.8-94.4-120.7c0,0-11.6,14.8-38.6,14.8s-38.6-14.8-38.6-14.8
		C13,192.4,1.6,215.5,0.1,295.7c-0.1,6.5-0.2,6.9-0.2,6.1c0,1.4,0,4.1,0,8.7c0,0,19.6,39.5,133.1,39.5
		c113.5,0,133.1-39.5,133.1-39.5c0-3,0-5,0-6.4C266.1,304.6,266,303.7,265.9,298.4z"/>
</g>
</svg>
