<?xml version="1.0" encoding="utf-8"?>
<!-- Generator: Adobe Illustrator 19.0.1, SVG Export Plug-In . SVG Version: 6.00 Build 0)  -->
<svg version="1.1" id="Capa_1" xmlns="http://www.w3.org/2000/svg" xmlns:xlink="http://www.w3.org/1999/xlink" x="0px" y="0px"
	 viewBox="87 -153.8 480 480" style="enable-background:new 87 -153.8 480 480;" xml:space="preserve">
<g>
	<g>
		<g>
			<path d="M364.3-55.3c11.2-10.1,18.2-24.7,18.2-41c0-30.6-24.9-55.5-55.5-55.5s-55.5,24.9-55.5,55.5c0,16.3,7,30.8,18.2,41
				c-32.9,6.3-57.9,35.4-57.9,70.1v31.7c0,4.4,3.6,7.9,7.9,7.9h174.5c4.4,0,7.9-3.6,7.9-7.9V14.8C422.2-19.9,397.2-48.9,364.3-55.3z
				 M287.3-96.2c0-21.9,17.8-39.7,39.7-39.7s39.7,17.8,39.7,39.7S348.9-56.6,327-56.6S287.3-74.3,287.3-96.2z M406.3,38.6H247.7
				V14.8c0-30.6,24.9-55.5,55.5-55.5h47.6c30.6,0,55.5,24.9,55.5,55.5V38.6z"/>
			<path d="M414.3,56.5H239.7c-5.5,0-9.9-4.4-9.9-9.9V14.8c0-33.9,23.3-63.2,55.9-71.3c-10.3-10.6-16.2-24.9-16.2-39.8
				c0-31.7,25.8-57.5,57.5-57.5s57.5,25.8,57.5,57.5c0,14.9-5.9,29.2-16.2,39.8c32.6,8,55.9,37.4,55.9,71.3v31.7
				C424.2,52,419.7,56.5,414.3,56.5z M327-149.8c-29.5,0-53.6,24-53.6,53.6c0,15,6.4,29.4,17.6,39.5l3,2.7l-3.9,0.8
				c-32.6,6.3-56.3,35-56.3,68.2v31.7c0,3.3,2.7,6,6,6h174.5c3.3,0,6-2.7,6-6V14.8c0-33.2-23.7-61.9-56.3-68.2l-3.9-0.8l3-2.7
				c11.2-10.1,17.6-24.5,17.6-39.5C380.6-125.8,356.5-149.8,327-149.8z M408.3,40.6H245.7V14.8c0-31.7,25.8-57.5,57.5-57.5h47.6
				c31.7,0,57.5,25.8,57.5,57.5V40.6z M249.6,36.7h154.7V14.8c0-29.5-24-53.6-53.6-53.6h-47.6c-29.5,0-53.6,24-53.6,53.6V36.7z
				 M327-54.6c-23,0-41.7-18.7-41.7-41.7s18.7-41.7,41.7-41.7c23,0,41.7,18.7,41.7,41.7S350-54.6,327-54.6z M327-133.9
				c-20.8,0-37.7,16.9-37.7,37.7s16.9,37.7,37.7,37.7s37.7-16.9,37.7-37.7S347.8-133.9,327-133.9z"/>
		</g>
	</g>
</g>
<g>
	<g>
		<g>
			<path d="M221.5,214.5c11.1-10.1,18.2-24.8,18.2-41c0-30.6-24.9-55.5-55.5-55.5s-55.5,24.9-55.5,55.5c0,16.3,7,30.8,18.2,41
				C114,220.8,89,249.9,89,284.6v31.7c0,4.4,3.6,7.9,7.9,7.9h174.5c4.4,0,7.9-3.6,7.9-7.9v-31.7
				C279.4,249.9,254.4,220.8,221.5,214.5z M144.5,173.5c0-21.9,17.8-39.7,39.7-39.7s39.7,17.8,39.7,39.7s-17.8,39.7-39.7,39.7
				S144.5,195.4,144.5,173.5z M263.5,308.4H104.9v-23.8c0-30.6,24.9-55.5,55.5-55.5H208c30.6,0,55.5,24.9,55.5,55.5V308.4z"/>
			<path d="M271.5,326.2H96.9c-5.5,0-9.9-4.4-9.9-9.9v-31.7c0-33.9,23.3-63.2,55.9-71.3c-10.3-10.6-16.2-24.9-16.2-39.8
				c0-31.7,25.8-57.5,57.5-57.5s57.5,25.8,57.5,57.5c0,14.8-5.9,29.1-16.2,39.8c32.6,8,55.9,37.4,55.9,71.3v31.7
				C281.4,321.8,276.9,326.2,271.5,326.2z M184.2,120c-29.5,0-53.6,24-53.6,53.6c0,15,6.4,29.4,17.6,39.5l3,2.7l-3.9,0.8
				c-32.6,6.3-56.3,35-56.3,68.2v31.7c0,3.3,2.7,6,6,6h174.5c3.3,0,6-2.7,6-6v-31.7c0-33.2-23.7-61.9-56.3-68.2l-3.9-0.7l2.9-2.7
				c11.2-10.2,17.6-24.6,17.6-39.5C237.7,144,213.7,120,184.2,120z M265.5,310.4H102.9v-25.8c0-31.7,25.8-57.5,57.5-57.5H208
				c31.7,0,57.5,25.8,57.5,57.5V310.4z M106.8,306.4h154.7v-21.8c0-29.5-24-53.6-53.6-53.6h-47.6c-29.5,0-53.6,24-53.6,53.6V306.4z
				 M184.2,215.2c-23,0-41.7-18.7-41.7-41.7s18.7-41.7,41.7-41.7s41.7,18.7,41.7,41.7S207.2,215.2,184.2,215.2z M184.2,135.8
				c-20.8,0-37.7,16.9-37.7,37.7s16.9,37.7,37.7,37.7s37.7-16.9,37.7-37.7S205,135.8,184.2,135.8z"/>
		</g>
	</g>
</g>
<g>
	<g>
		<g>
			<path d="M507.1,214.5c11.1-10.1,18.2-24.8,18.2-41c0-30.6-24.9-55.5-55.5-55.5s-55.5,24.9-55.5,55.5c0,16.3,7,30.8,18.2,41
				c-32.9,6.3-57.9,35.4-57.9,70.1v31.7c0,4.4,3.6,7.9,7.9,7.9h174.5c4.4,0,7.9-3.6,7.9-7.9v-31.7C565,249.9,540,220.8,507.1,214.5z
				 M430.1,173.5c0-21.9,17.8-39.7,39.7-39.7s39.7,17.8,39.7,39.7s-17.8,39.7-39.7,39.7S430.1,195.4,430.1,173.5z M549.1,308.4
				H390.5v-23.8c0-30.6,24.9-55.5,55.5-55.5h47.6c30.6,0,55.5,24.9,55.5,55.5V308.4z"/>
			<path d="M557.1,326.2H382.5c-5.5,0-9.9-4.4-9.9-9.9v-31.7c0-33.9,23.3-63.2,55.9-71.3c-10.3-10.6-16.2-24.9-16.2-39.8
				c0-31.7,25.8-57.5,57.5-57.5s57.5,25.8,57.5,57.5c0,14.8-5.9,29.1-16.2,39.8c32.6,8,55.9,37.4,55.9,71.3v31.7
				C567,321.8,562.6,326.2,557.1,326.2z M469.8,120c-29.5,0-53.6,24-53.6,53.6c0,15,6.4,29.4,17.6,39.5l3,2.7l-3.9,0.8
				c-32.6,6.3-56.3,35-56.3,68.2v31.7c0,3.3,2.7,6,6,6h174.5c3.3,0,6-2.7,6-6v-31.7c0-33.2-23.7-61.9-56.3-68.2l-3.9-0.7l2.9-2.7
				c11.2-10.2,17.6-24.6,17.6-39.5C523.4,144,499.3,120,469.8,120z M551.1,310.4H388.5v-25.8c0-31.7,25.8-57.5,57.5-57.5h47.6
				c31.7,0,57.5,25.8,57.5,57.5V310.4z M392.5,306.4h154.7v-21.8c0-29.5-24-53.6-53.6-53.6H446c-29.5,0-53.6,24-53.6,53.6V306.4z
				 M469.8,215.2c-23,0-41.7-18.7-41.7-41.7s18.7-41.7,41.7-41.7c23,0,41.7,18.7,41.7,41.7S492.8,215.2,469.8,215.2z M469.8,135.8
				c-20.8,0-37.7,16.9-37.7,37.7s16.9,37.7,37.7,37.7c20.8,0,37.7-16.9,37.7-37.7S490.6,135.8,469.8,135.8z"/>
		</g>
	</g>
</g>
</svg>
