<?xml version="1.0" encoding="utf-8"?>
<!-- Generator: Adobe Illustrator 19.0.1, SVG Export Plug-In . SVG Version: 6.00 Build 0)  -->
<svg version="1.1" id="Capa_1" xmlns="http://www.w3.org/2000/svg" xmlns:xlink="http://www.w3.org/1999/xlink" x="0px" y="0px"
	 viewBox="87 -153.8 480 480" style="enable-background:new 87 -153.8 480 480;" xml:space="preserve">
<g>
	<g>
		<path d="M414.7,44c-0.1-0.2-0.2-0.5-0.3-0.7c-0.1-0.4-0.3-0.8-0.5-1.2c-0.2-0.3-0.4-0.5-0.6-0.7c-0.2-0.3-0.4-0.6-0.7-0.9
			c-0.2-0.2-0.5-0.4-0.7-0.6c-0.3-0.2-0.5-0.4-0.8-0.6l-80-48c-2.5-1.5-5.7-1.5-8.2,0l-80,48c-0.3,0.2-0.6,0.4-0.8,0.6
			c-0.3,0.2-0.5,0.4-0.8,0.6c-0.2,0.3-0.5,0.6-0.7,0.9c-0.2,0.2-0.4,0.5-0.6,0.7c-0.2,0.4-0.3,0.8-0.5,1.1c-0.1,0.2-0.2,0.5-0.3,0.8
			c-0.2,0.7-0.3,1.4-0.3,2.1v80c0,2.8,1.5,5.4,3.9,6.9l80,48h0.1l0.1,0.1c0.4,0.2,0.9,0.4,1.3,0.5c0.2,0.1,0.4,0.2,0.6,0.2
			c1.4,0.4,2.8,0.4,4.2,0c0.2-0.1,0.4-0.2,0.6-0.2c0.5-0.1,0.9-0.3,1.3-0.5l0.1-0.1h0.1l80-48c2.4-1.4,3.9-4,3.9-6.9v-80
			C415,45.4,414.9,44.7,414.7,44z M327,7.4l24.4,14.7L287,60.8l-24.4-14.7L327,7.4z M319,160l-64-38.4V60.2l64,38.4V160z M327,84.8
			l-24.4-14.7L367,31.4l24.4,14.7L327,84.8z M399,121.6L335,160V98.7l64-38.4V121.6z"/>
	</g>
</g>
<g>
	<g>
		<path d="M333.4-150.7c-2.9-3.5-8.1-4-11.7-1.1c-0.4,0.3-0.8,0.7-1.1,1.1l-24,32l12.8,9.6l9.6-12.8v64h16v-64l9.6,12.8l12.8-9.6
			L333.4-150.7z"/>
	</g>
</g>
<g>
	<g>
		<path d="M344.6,281.3l-9.6,12.8v-64h-16v64l-9.6-12.8l-12.8,9.6l24,32c2.7,3.5,7.7,4.3,11.2,1.6c0.6-0.5,1.1-1,1.6-1.6l24-32
			L344.6,281.3z"/>
	</g>
</g>
<g>
	<g>
		<path d="M183,78.1h-64l12.8-9.6l-9.6-12.8l-32,24c-3.5,2.7-4.3,7.7-1.6,11.2c0.5,0.6,1,1.1,1.6,1.6l32,24l9.6-12.8L119,94.1h64
			V78.1z"/>
	</g>
</g>
<g>
	<g>
		<path d="M565.4,81.3c-0.5-0.6-1-1.1-1.6-1.6l-32-24l-9.6,12.8l12.8,9.6h-64v16h64l-12.8,9.6l9.6,12.8l32-24
			C567.3,89.9,568.1,84.8,565.4,81.3z"/>
	</g>
</g>
</svg>
