<?xml version="1.0" encoding="utf-8"?>
<!-- Generator: Adobe Illustrator 19.0.1, SVG Export Plug-In . SVG Version: 6.00 Build 0)  -->
<svg version="1.1" id="Шар_1" xmlns="http://www.w3.org/2000/svg" xmlns:xlink="http://www.w3.org/1999/xlink" x="0px" y="0px"
	 viewBox="0 0 489 360.7" style="enable-background:new 0 0 489 360.7;" xml:space="preserve">
<style type="text/css">
	.st0{fill:#0D0F0F;}
</style>
<g>
	<path class="st0" d="M429.4,190.9C394,147.8,327.3,96.5,209.7,92.1V12.3c0-4.7-2.7-9.1-7-11.1s-9.4-1.4-13,1.6L4.5,155.5
		c-2.8,2.3-4.5,5.8-4.5,9.4c0,3.7,1.6,7.1,4.4,9.4l185.2,153.3c3.7,3,8.7,3.7,13,1.6c4.3-2,7-6.3,7-11.1v-79.5
		c76.8,0.3,194.2,6,256.5,115.9c2.2,3.9,6.3,6.2,10.7,6.2c1,0,2.1-0.1,3.1-0.4c5.4-1.4,9.1-6.3,9.1-11.8
		C489.1,307.4,473.4,244.5,429.4,190.9z M197.4,214.1L197.4,214.1c-3.3,0-6.4,1.3-8.7,3.6s-3.6,5.4-3.6,8.7v65.7L31.6,165
		L185.2,38.3V104c0,6.7,5.4,12.2,12.1,12.3c176,1.7,241.6,109,260.7,184.4C382.2,214.2,268.7,214.1,197.4,214.1z"/>
</g>
</svg>
