<?xml version="1.0" encoding="utf-8"?>
<!-- Generator: Adobe Illustrator 19.0.1, SVG Export Plug-In . SVG Version: 6.00 Build 0)  -->
<svg version="1.1" id="Шар_1" xmlns="http://www.w3.org/2000/svg" xmlns:xlink="http://www.w3.org/1999/xlink" x="0px" y="0px"
	 viewBox="0 0 304.5 408.5" style="enable-background:new 0 0 304.5 408.5;" xml:space="preserve">
<style type="text/css">
	.st0{fill:#0D0F0F;}
</style>
<g>
	<g>
		<path class="st0" d="M35.7,388.8c0.5,11,9.5,19.7,20.5,19.7h191.9c11,0,20.1-8.7,20.5-19.7l13.7-289.3H22L35.7,388.8z
			 M195.7,171.3c0-4.6,3.7-8.3,8.4-8.3h13.4c4.6,0,8.4,3.7,8.4,8.3v165.3c0,4.6-3.7,8.3-8.4,8.3H204c-4.6,0-8.4-3.7-8.4-8.3V171.3z
			 M137.2,171.3c0-4.6,3.7-8.3,8.3-8.3h13.4c4.6,0,8.3,3.7,8.3,8.3v165.3c0,4.6-3.7,8.3-8.3,8.3h-13.4c-4.6,0-8.3-3.7-8.3-8.3V171.3
			L137.2,171.3z M78.8,171.3c0-4.6,3.7-8.3,8.3-8.3h13.4c4.6,0,8.3,3.7,8.3,8.3v165.3c0,4.6-3.7,8.3-8.3,8.3H87.1
			c-4.6,0-8.3-3.7-8.3-8.3V171.3z"/>
		<path class="st0" d="M291.6,21H203V4.3c0-2.4-1.9-4.3-4.3-4.3h-93c-2.4,0-4.3,1.9-4.3,4.3V21H12.9C5.8,21,0,26.8,0,33.9v40.5
			h304.5V33.9C304.5,26.8,298.7,21,291.6,21z"/>
	</g>
</g>
</svg>
