<?xml version="1.0" encoding="utf-8"?>
<!-- Generator: Adobe Illustrator 19.0.1, SVG Export Plug-In . SVG Version: 6.00 Build 0)  -->
<svg version="1.1" id="Шар_1" xmlns="http://www.w3.org/2000/svg" xmlns:xlink="http://www.w3.org/1999/xlink" x="0px" y="0px"
	 viewBox="0 0 12.3 12.3" style="enable-background:new 0 0 12.3 12.3;" xml:space="preserve">
<style type="text/css">
	.st0{fill:#0D0F0F;}
</style>
<path class="st0" d="M5.1,10.1c-1.3,0-2.6-0.5-3.6-1.5c-2-2-2-5.2,0-7.2c2-2,5.2-2,7.2,0c2,2,2,5.2,0,7.2C7.6,9.6,6.3,10.1,5.1,10.1
	z M5.1,1.4c-0.9,0-1.9,0.4-2.6,1.1C1,3.9,1,6.2,2.4,7.7c1.4,1.4,3.8,1.4,5.2,0c1.4-1.4,1.4-3.8,0-5.2C6.9,1.7,6,1.4,5.1,1.4z"/>
<rect x="7.4" y="9.3" transform="matrix(0.7071 0.7071 -0.7071 0.7071 9.9642 -4.1273)" class="st0" width="5.1" height="1.4"/>
</svg>
