<?xml version="1.0" encoding="utf-8"?>
<!-- Generator: Adobe Illustrator 19.0.1, SVG Export Plug-In . SVG Version: 6.00 Build 0)  -->
<svg version="1.1" id="Шар_1" xmlns="http://www.w3.org/2000/svg" xmlns:xlink="http://www.w3.org/1999/xlink" x="0px" y="0px"
	 viewBox="0 0 170.6 201.4" style="enable-background:new 0 0 170.6 201.4;" xml:space="preserve">
<style type="text/css">
	.st0{fill:#0D0F0F;}
</style>
<g>
	<g>
		<path class="st0" d="M114,24.9C112,10.7,99.6,0,85.3,0c-9.2,0-18,4.5-23.4,11.9c-1.1,1.5-0.8,3.7,0.7,4.8s3.7,0.8,4.8-0.7
			c4.2-5.7,10.9-9.1,17.9-9.1c11,0,20.4,8.2,22,19c0.2,1.7,1.7,2.9,3.4,2.9c0.2,0,0.3,0,0.5,0C113,28.5,114.3,26.8,114,24.9z"/>
	</g>
</g>
<g>
	<g>
		<path class="st0" d="M163.3,63.1L153.1,46c-0.6-1-1.7-1.7-2.9-1.7h-9.8c-1.9,0-3.4,1.5-3.4,3.4s1.5,3.4,3.4,3.4h7.9l6.1,10.2H16.2
			l6.1-10.2h3.6c1.9,0,3.4-1.5,3.4-3.4s-1.5-3.4-3.4-3.4h-5.5c-1.2,0-2.3,0.6-2.9,1.7L7.3,63.1c-0.6,1.1-0.6,2.4,0,3.4
			s1.7,1.7,3,1.7h150.2c1.2,0,2.4-0.7,3-1.7S163.9,64.2,163.3,63.1z"/>
	</g>
</g>
<g>
	<g>
		<path class="st0" d="M146.3,31.6c-0.5-0.8-1.2-1.3-2.1-1.5L97.6,19.2c-0.9-0.2-1.8-0.1-2.6,0.4c-0.8,0.5-1.3,1.2-1.5,2.1l-3.5,15
			c-0.4,1.8,0.7,3.7,2.5,4.1c1.8,0.4,3.7-0.7,4.1-2.5l2.7-11.7l39.9,9.3l-6.3,26.8c-0.4,1.8,0.7,3.7,2.5,4.1
			c0.3,0.1,0.5,0.1,0.8,0.1c1.6,0,3-1.1,3.3-2.6l7-30.1C146.9,33.3,146.8,32.4,146.3,31.6z"/>
	</g>
</g>
<g>
	<g>
		<path class="st0" d="M87.1,39.7L84,13.4c-0.1-0.9-0.6-1.7-1.3-2.3s-1.6-0.8-2.5-0.7l-57.1,6.7c-1.9,0.2-3.2,1.9-3,3.8l5.2,43.9
			c0.2,1.7,1.7,3,3.4,3c0.1,0,0.3,0,0.4,0c1.9-0.2,3.2-1.9,3-3.8l-4.8-40.5l50.3-5.9l2.7,22.9c0.2,1.9,1.9,3.2,3.8,3
			S87.3,41.6,87.1,39.7z"/>
	</g>
</g>
<g>
	<g>
		<path class="st0" d="M163.8,64.7c-0.1-1.8-1.6-3.2-3.4-3.2H10.2c-1.8,0-3.3,1.4-3.4,3.2L0,197.8c0,0.9,0.3,1.8,0.9,2.5
			s1.5,1.1,2.5,1.1h163.8c0.9,0,1.8-0.4,2.5-1.1c0.6-0.7,1-1.6,0.9-2.5L163.8,64.7z M7,194.6l6.5-126.3h143.7l6.5,126.3H7z"/>
	</g>
</g>
<g>
	<g>
		<path class="st0" d="M110.9,75.1c-5.6,0-10.2,4.6-10.2,10.2s4.6,10.2,10.2,10.2c5.6,0,10.2-4.6,10.2-10.2S116.5,75.1,110.9,75.1z
			 M110.9,88.7c-1.9,0-3.4-1.5-3.4-3.4s1.5-3.4,3.4-3.4c1.9,0,3.4,1.5,3.4,3.4S112.8,88.7,110.9,88.7z"/>
	</g>
</g>
<g>
	<g>
		<path class="st0" d="M59.7,75.1c-5.6,0-10.2,4.6-10.2,10.2s4.6,10.2,10.2,10.2s10.2-4.6,10.2-10.2C69.9,79.7,65.3,75.1,59.7,75.1z
			 M59.7,88.7c-1.9,0-3.4-1.5-3.4-3.4s1.5-3.4,3.4-3.4s3.4,1.5,3.4,3.4S61.6,88.7,59.7,88.7z"/>
	</g>
</g>
<g>
	<g>
		<path class="st0" d="M110.9,85.3h-0.3c-1.9,0-3.4,1.5-3.4,3.4c0,0.5,0.1,0.9,0.3,1.3v17.5c0,12.2-10,22.2-22.2,22.2
			s-22.2-10-22.2-22.2V88.7c0-1.9-1.5-3.4-3.4-3.4s-3.4,1.5-3.4,3.4v18.8c0,16,13,29,29,29s29-13,29-29V88.7
			C114.3,86.9,112.8,85.3,110.9,85.3z"/>
	</g>
</g>
</svg>
