<?xml version="1.0" encoding="utf-8"?>
<!-- Generator: Adobe Illustrator 19.0.1, SVG Export Plug-In . SVG Version: 6.00 Build 0)  -->
<svg version="1.1" id="Шар_1" xmlns="http://www.w3.org/2000/svg" xmlns:xlink="http://www.w3.org/1999/xlink" x="0px" y="0px"
	 viewBox="0 0 512 440" style="enable-background:new 0 0 512 440;" xml:space="preserve">
<style type="text/css">
	.st0{fill:#0D0F0F;}
</style>
<path class="st0" d="M256,220c5.5,0,10-4.5,10-10s-4.5-10-10-10s-10,4.5-10,10S250.5,220,256,220z"/>
<path class="st0" d="M472,140h-59.1l-91-125.2c-8.2-14-26.2-19-40.5-11.1c-14.5,8.1-19.7,26.3-11.6,40.8c0.2,0.4,0.5,0.8,0.8,1.2
	l71.4,94.2H170.1l71.4-94.2c0.3-0.4,0.5-0.8,0.8-1.2c8-14.5,2.9-32.7-11.7-40.8c-14.3-7.9-32.3-2.9-40.5,11.1L99.1,140H40
	c-22.1,0-40,17.9-40,40c0,17.4,11.3,32.5,27.2,37.9c1.7,1.3,3.8,2.1,6.1,2.1c0.5,0,0.9,0,1.3,0.1c4.3,0.6,7.7,3.8,8.5,8.1l34,187.2
	c2.6,14.3,15,24.6,29.5,24.6h298.6c14.5,0,26.9-10.4,29.5-24.6l34-187.2c0.8-4.3,4.2-7.5,8.5-8.1c0.4-0.1,0.9-0.1,1.3-0.1
	c2.3,0,4.5-0.8,6.1-2.1c15.9-5.4,27.2-20.5,27.2-37.9C512,157.9,494.1,140,472,140z M287,34.3c-2.3-4.7-0.5-10.5,4.1-13.1
	c4.8-2.7,10.9-1,13.6,3.9c0.2,0.4,0.4,0.7,0.7,1L388.1,140H367L287,34.3z M206.6,26.2c0.2-0.3,0.5-0.7,0.7-1
	c2.7-4.8,8.8-6.5,13.6-3.9c4.7,2.6,6.4,8.3,4.1,13.1L145,140h-21.2L206.6,26.2z M472,200H296c-5.5,0-10,4.5-10,10s4.5,9.9,10,9.9
	h154.4c-0.5,1.5-0.9,3-1.2,4.6l-34,187.3c-0.9,4.8-5,8.2-9.8,8.2H106.7c-4.8,0-9-3.5-9.8-8.2l-34-187.2c-0.3-1.6-0.7-3.1-1.2-4.6
	H216c5.5,0,10-4.5,10-10s-4.5-10-10-10H40c-11.1,0-20-9.1-20-20c0-11,9-20,20-20h432c11,0,20,9,20,20C492,191.1,482.9,200,472,200z"
	/>
<path class="st0" d="M256,250c-16.5,0-30,13.5-30,30v80c0,16.5,13.5,30,30,30s30-13.5,30-30v-80C286,263.4,272.6,250,256,250z
	 M266,360c0,5.5-4.5,10-10,10s-10-4.5-10-10v-80c0-5.5,4.5-10,10-10c5.5,0,10,4.5,10,10V360z"/>
<path class="st0" d="M356,390c16.5,0,30-13.5,30-30v-80c0-16.6-13.4-30-30-30c-16.5,0-30,13.5-30,30v80C326,376.5,339.5,390,356,390
	z M346,280c0-5.5,4.5-10,10-10c5.5,0,10,4.5,10,10v80c0,5.5-4.5,10-10,10s-10-4.5-10-10V280z"/>
<path class="st0" d="M156,250c-16.5,0-30,13.5-30,30v80c0,16.5,13.5,30,30,30s30-13.5,30-30v-80C186,263.4,172.6,250,156,250z
	 M166,360c0,5.5-4.5,10-10,10s-10-4.5-10-10v-80c0-5.5,4.5-10,10-10c5.5,0,10,4.5,10,10V360z"/>
</svg>
