<?xml version="1.0" encoding="utf-8"?>
<!-- Generator: Adobe Illustrator 19.0.1, SVG Export Plug-In . SVG Version: 6.00 Build 0)  -->
<svg version="1.1" id="Шар_1" xmlns="http://www.w3.org/2000/svg" xmlns:xlink="http://www.w3.org/1999/xlink" x="0px" y="0px"
	 viewBox="0 0 477.4 512" style="enable-background:new 0 0 477.4 512;" xml:space="preserve">
<style type="text/css">
	.st0{fill:#0D0F0F;}
</style>
<g>
	<g>
		<path class="st0" d="M416.5,152.3h-2.1V11.2c0-5.6-4.6-10.2-10.2-10.2H71.7c-5.6,0-10.2,4.6-10.2,10.2v242h-2.1
			c-33.2,0-60.2,27-60.2,60.2s27,60.2,60.2,60.2h2.1v129.2c0,5.6,4.6,10.2,10.2,10.2h332.6c5.6,0,10.2-4.6,10.2-10.2V272.6h2.1
			c33.2,0,60.2-27,60.2-60.2S449.7,152.3,416.5,152.3z M61.5,353.2h-2.1c-21.9,0-39.8-17.8-39.8-39.8s17.8-39.8,39.8-39.8h2.1V353.2
			z M394.1,152.3h-29.2v-18.5c0-8.3-4.3-15.8-11.5-19.9c-7.2-4.2-15.8-4.2-23,0l-49.7,28.7c-7.2,4.2-11.5,11.6-11.5,19.9
			s4.3,15.8,11.5,19.9l49.7,28.7h0c3.6,2.1,7.5,3.1,11.5,3.1c3.9,0,7.9-1,11.5-3.1c7.2-4.2,11.5-11.6,11.5-19.9v-18.5h29.2v319.9
			H81.9v-119H206v18.5c0,8.3,4.3,15.8,11.5,19.9c3.6,2.1,7.5,3.1,11.5,3.1s7.9-1,11.5-3.1l49.7-28.7c7.2-4.2,11.5-11.6,11.5-19.9
			s-4.3-15.8-11.5-19.9l-49.7-28.7h0c-7.2-4.2-15.8-4.2-23,0c-7.2,4.2-11.5,11.6-11.5,19.9v18.5H81.9V21.4h312.2L394.1,152.3
			L394.1,152.3z M344.4,133.8v57.4c0,1.2-0.7,1.9-1.3,2.3s-1.5,0.6-2.6,0l-49.7-28.7c-1.1-0.6-1.3-1.6-1.3-2.3s0.2-1.6,1.3-2.3
			l49.7-28.7c1.1-0.6,2-0.3,2.6,0C343.7,131.9,344.4,132.5,344.4,133.8z M226.4,392.1v-57.4c0-1.2,0.7-1.9,1.3-2.3
			c0.3-0.2,0.8-0.4,1.3-0.4c0.4,0,0.8,0.1,1.3,0.4l49.7,28.7c1.1,0.6,1.3,1.6,1.3,2.3c0,0.7-0.2,1.6-1.3,2.3l-49.7,28.7
			c-1.1,0.6-2,0.3-2.6,0C227.1,394,226.4,393.3,226.4,392.1z M416.5,252.2h-2.1v-79.6h2.1c21.9,0,39.8,17.8,39.8,39.8
			S438.5,252.2,416.5,252.2z"/>
	</g>
</g>
<g>
	<g>
		<path class="st0" d="M346.1,63.2H339c-5.6,0-10.2,4.6-10.2,10.2s4.6,10.2,10.2,10.2h7.1c5.6,0,10.2-4.6,10.2-10.2
			C356.3,67.8,351.7,63.2,346.1,63.2z"/>
	</g>
</g>
<g>
	<g>
		<path class="st0" d="M299.2,63.2H129.9c-5.6,0-10.2,4.6-10.2,10.2s4.6,10.2,10.2,10.2h169.3c5.6,0,10.2-4.6,10.2-10.2
			C309.4,67.8,304.8,63.2,299.2,63.2z"/>
	</g>
</g>
<g>
	<g>
		<path class="st0" d="M267.6,240.7H129.9c-5.6,0-10.2,4.6-10.2,10.2s4.6,10.2,10.2,10.2h137.7c5.6,0,10.2-4.6,10.2-10.2
			S273.2,240.7,267.6,240.7z"/>
	</g>
</g>
<g>
	<g>
		<path class="st0" d="M221.7,124.4h-91.8c-5.6,0-10.2,4.6-10.2,10.2c0,5.6,4.6,10.2,10.2,10.2h91.8c5.6,0,10.2-4.6,10.2-10.2
			S227.3,124.4,221.7,124.4z"/>
	</g>
</g>
<g>
	<g>
		<path class="st0" d="M221.7,179.5h-91.8c-5.6,0-10.2,4.6-10.2,10.2c0,5.6,4.6,10.2,10.2,10.2h91.8c5.6,0,10.2-4.6,10.2-10.2
			C231.9,184.1,227.3,179.5,221.7,179.5z"/>
	</g>
</g>
</svg>
